<?xml version="1.0" encoding="UTF-8" standalone="no"?>
<!-- Created with Inkscape (http://www.inkscape.org/) -->

<svg
   xmlns:dc="http://purl.org/dc/elements/1.1/"
   xmlns:cc="http://creativecommons.org/ns#"
   xmlns:rdf="http://www.w3.org/1999/02/22-rdf-syntax-ns#"
   xmlns:svg="http://www.w3.org/2000/svg"
   xmlns="http://www.w3.org/2000/svg"
   xmlns:sodipodi="http://sodipodi.sourceforge.net/DTD/sodipodi-0.dtd"
   xmlns:inkscape="http://www.inkscape.org/namespaces/inkscape"
   width="92.5"
   height="126.25"
   id="svg9183"
   version="1.1"
   inkscape:version="0.48.3.1 r9886"
   sodipodi:docname="New document 6">
  <defs
     id="defs9185">
    <clipPath
       clipPathUnits="userSpaceOnUse"
       id="clipPath2446">
      <path
         inkscape:connector-curvature="0"
         d="m 0,932 1190.551,0 0,-932 L 0,0 0,932 z"
         id="path2448" />
    </clipPath>
    <linearGradient
       x1="0"
       y1="0"
       x2="1"
       y2="0"
       gradientUnits="userSpaceOnUse"
       gradientTransform="matrix(-2.5e-6,57.874023,57.874023,2.5e-6,238.38379,848.2373)"
       spreadMethod="pad"
       id="linearGradient2430">
      <stop
         style="stop-opacity:1;stop-color:#a78229"
         offset="0"
         id="stop2432" />
      <stop
         style="stop-opacity:1;stop-color:#dec028"
         offset="0.532995"
         id="stop2434" />
      <stop
         style="stop-opacity:1;stop-color:#dec028"
         offset="0.532995"
         id="stop2436" />
      <stop
         style="stop-opacity:1;stop-color:#a37e29"
         offset="1"
         id="stop2438" />
    </linearGradient>
    <clipPath
       clipPathUnits="userSpaceOnUse"
       id="clipPath2410">
      <path
         inkscape:connector-curvature="0"
         d="m 0,932 1190.551,0 0,-932 L 0,0 0,932 z"
         id="path2412" />
    </clipPath>
    <linearGradient
       x1="0"
       y1="0"
       x2="1"
       y2="0"
       gradientUnits="userSpaceOnUse"
       gradientTransform="matrix(13.500284,13.500284,13.500284,-13.500284,249.69385,882.11084)"
       spreadMethod="pad"
       id="linearGradient2398">
      <stop
         style="stop-opacity:1;stop-color:#ffffff"
         offset="0"
         id="stop2400" />
      <stop
         style="stop-opacity:1;stop-color:#f0c629"
         offset="1"
         id="stop2402" />
    </linearGradient>
    <clipPath
       clipPathUnits="userSpaceOnUse"
       id="clipPath2374">
      <path
         inkscape:connector-curvature="0"
         d="m 0,932 1190.551,0 0,-932 L 0,0 0,932 z"
         id="path2376" />
    </clipPath>
    <linearGradient
       x1="0"
       y1="0"
       x2="1"
       y2="0"
       gradientUnits="userSpaceOnUse"
       gradientTransform="matrix(-4.3e-6,99,99,4.3e-6,240.69336,810.11133)"
       spreadMethod="pad"
       id="linearGradient2362">
      <stop
         style="stop-opacity:1;stop-color:#f0c629"
         offset="0"
         id="stop2364" />
      <stop
         style="stop-opacity:1;stop-color:#ffffff"
         offset="1"
         id="stop2366" />
    </linearGradient>
  </defs>
  <sodipodi:namedview
     id="base"
     pagecolor="#ffffff"
     bordercolor="#666666"
     borderopacity="1.0"
     inkscape:pageopacity="0.0"
     inkscape:pageshadow="2"
     inkscape:zoom="1.979899"
     inkscape:cx="78.749908"
     inkscape:cy="20.360643"
     inkscape:document-units="px"
     inkscape:current-layer="layer1"
     showgrid="false"
     fit-margin-top="0"
     fit-margin-left="0"
     fit-margin-right="0"
     fit-margin-bottom="0"
     inkscape:window-width="1920"
     inkscape:window-height="1031"
     inkscape:window-x="1280"
     inkscape:window-y="0"
     inkscape:window-maximized="1" />
  <metadata
     id="metadata9188">
    <rdf:RDF>
      <cc:Work
         rdf:about="">
        <dc:format>image/svg+xml</dc:format>
        <dc:type
           rdf:resource="http://purl.org/dc/dcmitype/StillImage" />
        <dc:title></dc:title>
      </cc:Work>
    </rdf:RDF>
  </metadata>
  <g
     inkscape:label="Layer 1"
     inkscape:groupmode="layer"
     id="layer1"
     transform="translate(-502.32143,-586.38007)">
    <g
       transform="matrix(1.25,0,0,-1.25,247.70468,1724.0192)"
       id="g2350">
      <g
         id="g2352">
        <g
           id="g2358">
          <g
             id="g2360">
            <path
               inkscape:connector-curvature="0"
               d="m 204.693,909.112 0,-99 72,0 0,72 -27,27 -45,0 z"
               style="fill:url(#linearGradient2362);stroke:none"
               id="path2368" />
          </g>
        </g>
      </g>
    </g>
    <g
       transform="matrix(1.25,0,0,-1.25,247.70468,1724.0192)"
       id="g2370">
      <g
         id="g2372"
         clip-path="url(#clipPath2374)">
        <g
           id="g2378"
           transform="translate(249.6934,909.1113)">
          <path
             inkscape:connector-curvature="0"
             d="m 0,0 27,-27 0,-72 -72,0 0,99 45,0 z"
             style="fill:none;stroke:#bb9f29;stroke-width:2;stroke-linecap:butt;stroke-linejoin:miter;stroke-miterlimit:4;stroke-opacity:1;stroke-dasharray:none"
             id="path2380" />
        </g>
      </g>
    </g>
    <text
       style="font-size:15px;fill:#4d4d4d"
       y="702.63007"
       x="515.51556"
       id="text2382">
      <tspan
         style="font-size:35px;font-variant:normal;font-weight:bold;font-stretch:normal;writing-mode:lr-tb;fill:#4d4d4d;fill-opacity:1;fill-rule:nonzero;stroke:none;font-family:Arial;-inkscape-font-specification:Arial-BoldMT"
         sodipodi:role="line"
         id="tspan2384"
         x="515.51556"
         y="702.63007">XXX</tspan>
    </text>
    <g
       transform="matrix(1.25,0,0,-1.25,247.70468,1724.0192)"
       id="g2386">
      <g
         id="g2388">
        <g
           id="g2394">
          <g
             id="g2396">
            <path
               inkscape:connector-curvature="0"
               d="m 249.693,882.112 27,0 -27,27 0,-27 z"
               style="fill:url(#linearGradient2398);stroke:none"
               id="path2404" />
          </g>
        </g>
      </g>
    </g>
    <g
       transform="matrix(1.25,0,0,-1.25,247.70468,1724.0192)"
       id="g2406">
      <g
         id="g2408"
         clip-path="url(#clipPath2410)">
        <g
           id="g2414"
           transform="translate(249.6934,909.1113)">
          <path
             inkscape:connector-curvature="0"
             d="M 0,0 27,-27 0,-27 0,0 z"
             style="fill:none;stroke:#bb9f29;stroke-width:2;stroke-linecap:butt;stroke-linejoin:bevel;stroke-miterlimit:4;stroke-opacity:1;stroke-dasharray:none"
             id="path2416" />
        </g>
      </g>
    </g>
    <g
       transform="matrix(1.25,0,0,-1.25,247.70468,1724.0192)"
       id="g2418">
      <g
         id="g2420">
        <g
           id="g2426">
          <g
             id="g2428">
            <path
               inkscape:connector-curvature="0"
               d="m 234.159,901.13 8.534,0 0,4.981 -8.534,0 0,-4.981 z m 0,-6.999 8.534,0 0,4.981 -8.534,0 0,-4.981 z m 0,-7 8.534,0 0,4.981 -8.534,0 0,-4.981 z m 0,-7 8.534,0 0,4.981 -8.534,0 0,-4.981 z m 0,-7.001 8.534,0 0,4.981 -8.534,0 0,-4.981 z m 0.852,-4.645 -1.677,-14.729 0.011,0 c -0.011,-0.15 -0.022,-0.303 -0.022,-0.457 l 0,0 c 0,-2.796 2.266,-5.062 5.064,-5.062 l 0,0 c 2.791,0 5.058,2.266 5.058,5.062 l 0,0 c 0,0.254 -0.022,0.502 -0.06,0.747 l 0,0 -1.623,14.514 -0.005,0 c -0.044,1.829 -1.537,3.299 -3.37,3.299 l 0,0 c -1.866,0 -3.376,-1.511 -3.376,-3.374 m -0.132,-14.997 c 0,1.919 1.555,3.475 3.474,3.475 l 0,0 c 1.919,0 3.475,-1.556 3.475,-3.475 l 0,0 c 0,-1.919 -1.556,-3.474 -3.475,-3.474 l 0,0 c -1.919,0 -3.474,1.555 -3.474,3.474"
               style="fill:url(#linearGradient2430);stroke:none"
               id="path2440" />
          </g>
        </g>
      </g>
    </g>
    <g
       transform="matrix(1.25,0,0,-1.25,247.70468,1724.0192)"
       id="g2442">
      <g
         id="g2444"
         clip-path="url(#clipPath2446)">
        <g
           id="g2450"
           transform="translate(237.1934,868.1113)">
          <path
             inkscape:connector-curvature="0"
             d="m 0,0 -2.25,4.5 0,2.25 L 0,9 2.25,9 4.5,6.75 4.5,4.5 2.25,0 0,0 z"
             style="fill:#ffffff;fill-opacity:1;fill-rule:nonzero;stroke:none"
             id="path2452" />
        </g>
      </g>
    </g>
  </g>
</svg>
