<?xml version="1.0" encoding="UTF-8" standalone="no"?>
<!-- Created with Inkscape (http://www.inkscape.org/) -->

<svg
   xmlns:dc="http://purl.org/dc/elements/1.1/"
   xmlns:cc="http://creativecommons.org/ns#"
   xmlns:rdf="http://www.w3.org/1999/02/22-rdf-syntax-ns#"
   xmlns:svg="http://www.w3.org/2000/svg"
   xmlns="http://www.w3.org/2000/svg"
   xmlns:sodipodi="http://sodipodi.sourceforge.net/DTD/sodipodi-0.dtd"
   xmlns:inkscape="http://www.inkscape.org/namespaces/inkscape"
   width="92.5"
   height="126.25"
   id="svg9183"
   version="1.1"
   inkscape:version="0.48.3.1 r9886"
   sodipodi:docname="EXECUTABLE.svg">
  <defs
     id="defs9185">
    <clipPath
       clipPathUnits="userSpaceOnUse"
       id="clipPath2446">
      <path
         inkscape:connector-curvature="0"
         d="m 0,932 1190.551,0 0,-932 L 0,0 0,932 z"
         id="path2448" />
    </clipPath>
    <linearGradient
       x1="0"
       y1="0"
       x2="1"
       y2="0"
       gradientUnits="userSpaceOnUse"
       gradientTransform="matrix(-2.5e-6,57.874023,57.874023,2.5e-6,238.38379,848.2373)"
       spreadMethod="pad"
       id="linearGradient2430">
      <stop
         style="stop-opacity:1;stop-color:#a78229"
         offset="0"
         id="stop2432" />
      <stop
         style="stop-opacity:1;stop-color:#dec028"
         offset="0.532995"
         id="stop2434" />
      <stop
         style="stop-opacity:1;stop-color:#dec028"
         offset="0.532995"
         id="stop2436" />
      <stop
         style="stop-opacity:1;stop-color:#a37e29"
         offset="1"
         id="stop2438" />
    </linearGradient>
    <clipPath
       clipPathUnits="userSpaceOnUse"
       id="clipPath2410">
      <path
         inkscape:connector-curvature="0"
         d="m 0,932 1190.551,0 0,-932 L 0,0 0,932 z"
         id="path2412" />
    </clipPath>
    <linearGradient
       x1="0"
       y1="0"
       x2="1"
       y2="0"
       gradientUnits="userSpaceOnUse"
       gradientTransform="matrix(13.500284,13.500284,13.500284,-13.500284,249.69385,882.11084)"
       spreadMethod="pad"
       id="linearGradient2398">
      <stop
         style="stop-opacity:1;stop-color:#ffffff"
         offset="0"
         id="stop2400" />
      <stop
         style="stop-opacity:1;stop-color:#f0c629"
         offset="1"
         id="stop2402" />
    </linearGradient>
    <clipPath
       clipPathUnits="userSpaceOnUse"
       id="clipPath2374">
      <path
         inkscape:connector-curvature="0"
         d="m 0,932 1190.551,0 0,-932 L 0,0 0,932 z"
         id="path2376" />
    </clipPath>
    <linearGradient
       x1="0"
       y1="0"
       x2="1"
       y2="0"
       gradientUnits="userSpaceOnUse"
       gradientTransform="matrix(-4.3e-6,99,99,4.3e-6,240.69336,810.11133)"
       spreadMethod="pad"
       id="linearGradient2362">
      <stop
         style="stop-opacity:1;stop-color:#f0c629"
         offset="0"
         id="stop2364" />
      <stop
         style="stop-opacity:1;stop-color:#ffffff"
         offset="1"
         id="stop2366" />
    </linearGradient>
    <linearGradient
       x1="0"
       y1="0"
       x2="1"
       y2="0"
       gradientUnits="userSpaceOnUse"
       gradientTransform="matrix(13.499939,13.499939,13.499939,-13.499939,429.64111,882.11084)"
       spreadMethod="pad"
       id="linearGradient5936">
      <stop
         style="stop-opacity:1;stop-color:#ffffff"
         offset="0"
         id="stop5938" />
      <stop
         style="stop-opacity:1;stop-color:#f0c629"
         offset="1"
         id="stop5940" />
    </linearGradient>
    <clipPath
       clipPathUnits="userSpaceOnUse"
       id="clipPath5668">
      <path
         inkscape:connector-curvature="0"
         d="m 0,932 1190.551,0 0,-932 L 0,0 0,932 z"
         id="path5670" />
    </clipPath>
    <clipPath
       clipPathUnits="userSpaceOnUse"
       id="clipPath5676">
      <path
         inkscape:connector-curvature="0"
         d="m 397.613,891.111 45,0 0,-45 -45,0 0,45 z"
         id="path5678" />
    </clipPath>
    <linearGradient
       x1="0"
       y1="0"
       x2="1"
       y2="0"
       gradientUnits="userSpaceOnUse"
       gradientTransform="matrix(-2e-6,45,45,2e-6,420.11328,846.11133)"
       spreadMethod="pad"
       id="linearGradient5684">
      <stop
         style="stop-opacity:1;stop-color:#a78229"
         offset="0"
         id="stop5686" />
      <stop
         style="stop-opacity:1;stop-color:#dec028"
         offset="0.532995"
         id="stop5688" />
      <stop
         style="stop-opacity:1;stop-color:#dec028"
         offset="0.532995"
         id="stop5690" />
      <stop
         style="stop-opacity:1;stop-color:#a37e29"
         offset="1"
         id="stop5692" />
    </linearGradient>
    <clipPath
       clipPathUnits="userSpaceOnUse"
       id="clipPath5712">
      <path
         inkscape:connector-curvature="0"
         d="m 417.301,871.424 5.625,0 0,-5.625 -5.625,0 0,5.625 z"
         id="path5714" />
    </clipPath>
    <clipPath
       clipPathUnits="userSpaceOnUse"
       id="clipPath5728">
      <path
         inkscape:connector-curvature="0"
         d="m 411.676,877.049 16.875,0 0,-16.875 -16.875,0 0,16.875 z"
         id="path5730" />
    </clipPath>
    <clipPath
       clipPathUnits="userSpaceOnUse"
       id="clipPath5652">
      <path
         inkscape:connector-curvature="0"
         d="m 0,932 1190.551,0 0,-932 L 0,0 0,932 z"
         id="path5654" />
    </clipPath>
    <linearGradient
       x1="0"
       y1="0"
       x2="1"
       y2="0"
       gradientUnits="userSpaceOnUse"
       gradientTransform="matrix(-4.3e-6,99,99,4.3e-6,420.11328,810.11133)"
       spreadMethod="pad"
       id="linearGradient5640">
      <stop
         style="stop-opacity:1;stop-color:#f0c629"
         offset="0"
         id="stop5642" />
      <stop
         style="stop-opacity:1;stop-color:#ffffff"
         offset="1"
         id="stop5644" />
    </linearGradient>
    <clipPath
       clipPathUnits="userSpaceOnUse"
       id="clipPath1894">
      <path
         inkscape:connector-curvature="0"
         d="m 0,932 1190.551,0 0,-932 L 0,0 0,932 z"
         id="path1896" />
    </clipPath>
    <linearGradient
       x1="0"
       y1="0"
       x2="1"
       y2="0"
       gradientUnits="userSpaceOnUse"
       gradientTransform="matrix(13.500284,13.500284,13.500284,-13.500284,612,747.11133)"
       spreadMethod="pad"
       id="linearGradient1882">
      <stop
         style="stop-opacity:1;stop-color:#ffffff"
         offset="0"
         id="stop1884" />
      <stop
         style="stop-opacity:1;stop-color:#96a8b3"
         offset="1"
         id="stop1886" />
    </linearGradient>
    <linearGradient
       x1="0"
       y1="0"
       x2="1"
       y2="0"
       gradientUnits="userSpaceOnUse"
       gradientTransform="matrix(-1.7e-6,39.448242,39.448242,1.7e-6,617.78223,713.8877)"
       spreadMethod="pad"
       id="linearGradient916">
      <stop
         style="stop-opacity:1;stop-color:#8a9ea9"
         offset="0"
         id="stop918" />
      <stop
         style="stop-opacity:1;stop-color:#4c6977"
         offset="0.989848"
         id="stop920" />
      <stop
         style="stop-opacity:1;stop-color:#4c6977"
         offset="1"
         id="stop922" />
    </linearGradient>
    <linearGradient
       x1="0"
       y1="0"
       x2="1"
       y2="0"
       gradientUnits="userSpaceOnUse"
       gradientTransform="matrix(-1.7e-6,39.448242,39.448242,1.7e-6,587.52637,713.8877)"
       spreadMethod="pad"
       id="linearGradient894">
      <stop
         style="stop-opacity:1;stop-color:#8a9ea9"
         offset="0"
         id="stop896" />
      <stop
         style="stop-opacity:1;stop-color:#4c6977"
         offset="0.989848"
         id="stop898" />
      <stop
         style="stop-opacity:1;stop-color:#4c6977"
         offset="1"
         id="stop900" />
    </linearGradient>
    <linearGradient
       x1="0"
       y1="0"
       x2="1"
       y2="0"
       gradientUnits="userSpaceOnUse"
       gradientTransform="matrix(-4.3e-6,99,99,4.3e-6,603,675.11133)"
       spreadMethod="pad"
       id="linearGradient866">
      <stop
         style="stop-opacity:1;stop-color:#c9d5dc"
         offset="0"
         id="stop868" />
      <stop
         style="stop-opacity:1;stop-color:#ffffff"
         offset="1"
         id="stop870" />
    </linearGradient>
    <linearGradient
       x1="0"
       y1="0"
       x2="1"
       y2="0"
       gradientUnits="userSpaceOnUse"
       gradientTransform="matrix(-1.5e-6,34.740723,34.740723,1.5e-6,1053.0332,811.06787)"
       spreadMethod="pad"
       id="linearGradient5330">
      <stop
         style="stop-opacity:1;stop-color:#f04d44"
         offset="0"
         id="stop5332" />
      <stop
         style="stop-opacity:1;stop-color:#c1343e"
         offset="1"
         id="stop5334" />
    </linearGradient>
    <clipPath
       clipPathUnits="userSpaceOnUse"
       id="clipPath2814">
      <path
         inkscape:connector-curvature="0"
         d="m 0,932 1190.551,0 0,-932 L 0,0 0,932 z"
         id="path2816" />
    </clipPath>
    <linearGradient
       x1="0"
       y1="0"
       x2="1"
       y2="0"
       gradientUnits="userSpaceOnUse"
       gradientTransform="matrix(13.499939,13.499939,13.499939,-13.499939,1062,882.11133)"
       spreadMethod="pad"
       id="linearGradient2802">
      <stop
         style="stop-opacity:1;stop-color:#ffffff"
         offset="0"
         id="stop2804" />
      <stop
         style="stop-opacity:1;stop-color:#96a8b3"
         offset="1"
         id="stop2806" />
    </linearGradient>
    <clipPath
       clipPathUnits="userSpaceOnUse"
       id="clipPath5668-1">
      <path
         inkscape:connector-curvature="0"
         d="m 0,932 1190.551,0 0,-932 L 0,0 0,932 z"
         id="path5670-6" />
    </clipPath>
    <clipPath
       clipPathUnits="userSpaceOnUse"
       id="clipPath5676-8">
      <path
         inkscape:connector-curvature="0"
         d="m 397.613,891.111 45,0 0,-45 -45,0 0,45 z"
         id="path5678-4" />
    </clipPath>
    <linearGradient
       x1="0"
       y1="0"
       x2="1"
       y2="0"
       gradientUnits="userSpaceOnUse"
       gradientTransform="matrix(-2e-6,45,45,2e-6,420.11328,846.11133)"
       spreadMethod="pad"
       id="linearGradient5684-6">
      <stop
         style="stop-opacity:1;stop-color:#a78229"
         offset="0"
         id="stop5686-2" />
      <stop
         style="stop-opacity:1;stop-color:#dec028"
         offset="0.532995"
         id="stop5688-7" />
      <stop
         style="stop-opacity:1;stop-color:#dec028"
         offset="0.532995"
         id="stop5690-2" />
      <stop
         style="stop-opacity:1;stop-color:#a37e29"
         offset="1"
         id="stop5692-8" />
    </linearGradient>
    <clipPath
       clipPathUnits="userSpaceOnUse"
       id="clipPath5712-3">
      <path
         inkscape:connector-curvature="0"
         d="m 417.301,871.424 5.625,0 0,-5.625 -5.625,0 0,5.625 z"
         id="path5714-0" />
    </clipPath>
    <clipPath
       clipPathUnits="userSpaceOnUse"
       id="clipPath5728-9">
      <path
         inkscape:connector-curvature="0"
         d="m 411.676,877.049 16.875,0 0,-16.875 -16.875,0 0,16.875 z"
         id="path5730-6" />
    </clipPath>
    <clipPath
       clipPathUnits="userSpaceOnUse"
       id="clipPath2782">
      <path
         inkscape:connector-curvature="0"
         d="m 0,932 1190.551,0 0,-932 L 0,0 0,932 z"
         id="path2784" />
    </clipPath>
    <linearGradient
       x1="0"
       y1="0"
       x2="1"
       y2="0"
       gradientUnits="userSpaceOnUse"
       gradientTransform="matrix(-4.3e-6,99,99,4.3e-6,1053,810.11133)"
       spreadMethod="pad"
       id="linearGradient2770">
      <stop
         style="stop-opacity:1;stop-color:#c9d5dc"
         offset="0"
         id="stop2772" />
      <stop
         style="stop-opacity:1;stop-color:#ffffff"
         offset="1"
         id="stop2774" />
    </linearGradient>
    <linearGradient
       x1="0"
       y1="0"
       x2="1"
       y2="0"
       gradientUnits="userSpaceOnUse"
       gradientTransform="matrix(13.500284,13.500284,13.500284,-13.500284,162.00098,492.11035)"
       spreadMethod="pad"
       id="linearGradient820">
      <stop
         style="stop-opacity:1;stop-color:#ffffff"
         offset="0"
         id="stop822" />
      <stop
         style="stop-opacity:1;stop-color:#96a8b3"
         offset="1"
         id="stop824" />
    </linearGradient>
    <linearGradient
       x1="0"
       y1="0"
       x2="1"
       y2="0"
       gradientUnits="userSpaceOnUse"
       gradientTransform="matrix(-4.3e-6,98.999512,98.999512,4.3e-6,153,420.11133)"
       spreadMethod="pad"
       id="linearGradient792">
      <stop
         style="stop-opacity:1;stop-color:#c9d5dc"
         offset="0"
         id="stop794" />
      <stop
         style="stop-opacity:1;stop-color:#ffffff"
         offset="1"
         id="stop796" />
    </linearGradient>
    <clipPath
       clipPathUnits="userSpaceOnUse"
       id="clipPath2650">
      <path
         inkscape:connector-curvature="0"
         d="m 0,932 1190.551,0 0,-932 L 0,0 0,932 z"
         id="path2652" />
    </clipPath>
    <linearGradient
       x1="0"
       y1="0"
       x2="1"
       y2="0"
       gradientUnits="userSpaceOnUse"
       gradientTransform="matrix(13.499939,13.499939,13.499939,-13.499939,1152.001,882.11035)"
       spreadMethod="pad"
       id="linearGradient2638">
      <stop
         style="stop-opacity:1;stop-color:#ffffff"
         offset="0"
         id="stop2640" />
      <stop
         style="stop-opacity:1;stop-color:#96a8b3"
         offset="1"
         id="stop2642" />
    </linearGradient>
    <linearGradient
       x1="0"
       y1="0"
       x2="1"
       y2="0"
       gradientUnits="userSpaceOnUse"
       gradientTransform="matrix(-2.2e-6,51.141113,51.141113,2.2e-6,1141.9365,845.31055)"
       spreadMethod="pad"
       id="linearGradient978">
      <stop
         style="stop-opacity:1;stop-color:#afcddd"
         offset="0"
         id="stop980" />
      <stop
         style="stop-opacity:1;stop-color:#567280"
         offset="1"
         id="stop982" />
    </linearGradient>
    <linearGradient
       x1="0"
       y1="0"
       x2="1"
       y2="0"
       gradientUnits="userSpaceOnUse"
       gradientTransform="matrix(-4.3e-6,99,99,4.3e-6,1143,810.11133)"
       spreadMethod="pad"
       id="linearGradient660">
      <stop
         style="stop-opacity:1;stop-color:#c9d5dc"
         offset="0"
         id="stop662" />
      <stop
         style="stop-opacity:1;stop-color:#ffffff"
         offset="1"
         id="stop664" />
    </linearGradient>
    <linearGradient
       x1="0"
       y1="0"
       x2="1"
       y2="0"
       gradientUnits="userSpaceOnUse"
       gradientTransform="matrix(13.500284,13.500284,13.500284,-13.500284,342.00049,748.10986)"
       spreadMethod="pad"
       id="linearGradient5960">
      <stop
         style="stop-opacity:1;stop-color:#ffffff"
         offset="0"
         id="stop5962" />
      <stop
         style="stop-opacity:1;stop-color:#96a8b3"
         offset="1"
         id="stop5964" />
    </linearGradient>
    <linearGradient
       x1="0"
       y1="0"
       x2="1"
       y2="0"
       gradientUnits="userSpaceOnUse"
       gradientTransform="matrix(36,0,0,-36,315,750.48633)"
       spreadMethod="pad"
       id="linearGradient5888">
      <stop
         style="stop-opacity:1;stop-color:#cedfe8"
         offset="0"
         id="stop5890" />
      <stop
         style="stop-opacity:1;stop-color:#7193a4"
         offset="1"
         id="stop5892" />
    </linearGradient>
    <linearGradient
       x1="0"
       y1="0"
       x2="1"
       y2="0"
       gradientUnits="userSpaceOnUse"
       gradientTransform="matrix(14.066188,14.066188,14.066188,-14.066188,325.9668,751.89062)"
       spreadMethod="pad"
       id="linearGradient5868">
      <stop
         style="stop-opacity:1;stop-color:#cedfe8"
         offset="0"
         id="stop5870" />
      <stop
         style="stop-opacity:1;stop-color:#7193a4"
         offset="1"
         id="stop5872" />
    </linearGradient>
    <clipPath
       clipPathUnits="userSpaceOnUse"
       id="clipPath5848">
      <path
         inkscape:connector-curvature="0"
         d="m 0,932 1190.551,0 0,-932 L 0,0 0,932 z"
         id="path5850" />
    </clipPath>
    <linearGradient
       x1="0"
       y1="0"
       x2="1"
       y2="0"
       gradientUnits="userSpaceOnUse"
       gradientTransform="matrix(36,0,0,-36,315,734.73633)"
       spreadMethod="pad"
       id="linearGradient5836">
      <stop
         style="stop-opacity:1;stop-color:#cedfe8"
         offset="0"
         id="stop5838" />
      <stop
         style="stop-opacity:1;stop-color:#587f91"
         offset="1"
         id="stop5840" />
    </linearGradient>
    <linearGradient
       x1="0"
       y1="0"
       x2="1"
       y2="0"
       gradientUnits="userSpaceOnUse"
       gradientTransform="matrix(14.066188,14.066188,14.066188,-14.066188,325.96729,736.14014)"
       spreadMethod="pad"
       id="linearGradient5816">
      <stop
         style="stop-opacity:1;stop-color:#cedfe8"
         offset="0"
         id="stop5818" />
      <stop
         style="stop-opacity:1;stop-color:#587f91"
         offset="1"
         id="stop5820" />
    </linearGradient>
    <clipPath
       clipPathUnits="userSpaceOnUse"
       id="clipPath5796">
      <path
         inkscape:connector-curvature="0"
         d="m 0,932 1190.551,0 0,-932 L 0,0 0,932 z"
         id="path5798" />
    </clipPath>
    <linearGradient
       x1="0"
       y1="0"
       x2="1"
       y2="0"
       gradientUnits="userSpaceOnUse"
       gradientTransform="matrix(36,0,0,-36,315,718.98633)"
       spreadMethod="pad"
       id="linearGradient5784">
      <stop
         style="stop-opacity:1;stop-color:#cedfe8"
         offset="0"
         id="stop5786" />
      <stop
         style="stop-opacity:1;stop-color:#587f91"
         offset="1"
         id="stop5788" />
    </linearGradient>
    <linearGradient
       x1="0"
       y1="0"
       x2="1"
       y2="0"
       gradientUnits="userSpaceOnUse"
       gradientTransform="matrix(14.066188,14.066188,14.066188,-14.066188,325.96729,720.39014)"
       spreadMethod="pad"
       id="linearGradient5764">
      <stop
         style="stop-opacity:1;stop-color:#cedfe8"
         offset="0"
         id="stop5766" />
      <stop
         style="stop-opacity:1;stop-color:#587f91"
         offset="1"
         id="stop5768" />
    </linearGradient>
    <clipPath
       clipPathUnits="userSpaceOnUse"
       id="clipPath5744">
      <path
         inkscape:connector-curvature="0"
         d="m 0,932 1190.551,0 0,-932 L 0,0 0,932 z"
         id="path5746" />
    </clipPath>
    <linearGradient
       x1="0"
       y1="0"
       x2="1"
       y2="0"
       gradientUnits="userSpaceOnUse"
       gradientTransform="matrix(-4.3e-6,98.999512,98.999512,4.3e-6,333,676.11133)"
       spreadMethod="pad"
       id="linearGradient340">
      <stop
         style="stop-opacity:1;stop-color:#c9d5dc"
         offset="0"
         id="stop342" />
      <stop
         style="stop-opacity:1;stop-color:#ffffff"
         offset="1"
         id="stop344" />
    </linearGradient>
  </defs>
  <sodipodi:namedview
     id="base"
     pagecolor="#ffffff"
     bordercolor="#666666"
     borderopacity="1.0"
     inkscape:pageopacity="0.0"
     inkscape:pageshadow="2"
     inkscape:zoom="1.979899"
     inkscape:cx="30.805273"
     inkscape:cy="118.7933"
     inkscape:document-units="px"
     inkscape:current-layer="layer1"
     showgrid="false"
     fit-margin-top="0"
     fit-margin-left="0"
     fit-margin-right="0"
     fit-margin-bottom="0"
     inkscape:window-width="1920"
     inkscape:window-height="1031"
     inkscape:window-x="1280"
     inkscape:window-y="0"
     inkscape:window-maximized="1" />
  <metadata
     id="metadata9188">
    <rdf:RDF>
      <cc:Work
         rdf:about="">
        <dc:format>image/svg+xml</dc:format>
        <dc:type
           rdf:resource="http://purl.org/dc/dcmitype/StillImage" />
        <dc:title></dc:title>
      </cc:Work>
    </rdf:RDF>
  </metadata>
  <g
     inkscape:label="Layer 1"
     inkscape:groupmode="layer"
     id="layer1"
     transform="translate(-550.26606,-866.64018)">
    <g
       transform="matrix(1.25,0,0,-1.25,180.26606,1836.7787)"
       id="g328">
      <g
         id="g330">
        <g
           id="g336">
          <g
             id="g338">
            <path
               inkscape:connector-curvature="0"
               d="m 342,775.111 27,-27 0,-72 -72,0 0,99 45,0 z"
               style="fill:url(#linearGradient340);stroke:none"
               id="path346" />
          </g>
        </g>
      </g>
    </g>
    <g
       id="g348"
       transform="matrix(1.25,0,0,-1.25,607.76606,867.89018)">
      <path
         inkscape:connector-curvature="0"
         d="m 0,0 27,-27 0,-72 -72,0 0,99 45,0 z"
         style="fill:none;stroke:#7795a4;stroke-width:2;stroke-linecap:butt;stroke-linejoin:miter;stroke-miterlimit:4;stroke-opacity:1;stroke-dasharray:none"
         id="path350" />
    </g>
    <text
       style="font-size:15px"
       y="980.38959"
       x="560.77118"
       id="text352">
      <tspan
         style="font-size:35px;font-variant:normal;font-weight:bold;font-stretch:normal;writing-mode:lr-tb;fill:#567280;fill-opacity:1;fill-rule:nonzero;stroke:none;font-family:Arial;-inkscape-font-specification:Arial-BoldMT"
         sodipodi:role="line"
         id="tspan354"
         x="560.77118"
         y="980.38959">XXX</tspan>
    </text>
    <g
       transform="matrix(1.25,0,0,-1.25,180.26606,1836.7787)"
       id="g5740">
      <g
         id="g5742"
         clip-path="url(#clipPath5744)">
        <g
           id="g5748"
           transform="translate(351,727.1426)">
          <path
             inkscape:connector-curvature="0"
             d="m 0,0 c 0,-2.485 -8.059,-4.5 -18,-4.5 -9.941,0 -18,2.015 -18,4.5 0,2.485 8.059,4.5 18,4.5 C -8.059,4.5 0,2.485 0,0"
             style="fill:#f2f2f3;fill-opacity:1;fill-rule:nonzero;stroke:none"
             id="path5750" />
        </g>
      </g>
    </g>
    <g
       transform="matrix(1.25,0,0,-1.25,180.26606,1836.7787)"
       id="g5752">
      <g
         id="g5754">
        <g
           id="g5760">
          <g
             id="g5762">
            <path
               inkscape:connector-curvature="0"
               d="m 319.5,727.424 c 0,-2.175 6.043,-3.937 13.5,-3.937 l 0,0 c 7.456,0 13.5,1.762 13.5,3.937 l 0,0 c 0,2.175 -6.044,3.938 -13.5,3.938 l 0,0 c -7.457,0 -13.5,-1.763 -13.5,-3.938"
               style="fill:url(#linearGradient5764);stroke:none"
               id="path5770" />
          </g>
        </g>
      </g>
    </g>
    <g
       transform="matrix(1.25,0,0,-1.25,180.26606,1836.7787)"
       id="g5772">
      <g
         id="g5774">
        <g
           id="g5780">
          <g
             id="g5782">
            <path
               inkscape:connector-curvature="0"
               d="m 333,722.642 c -15.75,-0.28 -18,4.22 -18,4.22 l 0,0 0,-11.25 c 0,0 4.5,-4.5 18,-4.5 l 0,0 c 13.5,0 18,4.5 18,4.5 l 0,0 0,11.25 c 0,0 -2.25,-3.938 -18,-4.22"
               style="fill:url(#linearGradient5784);stroke:none"
               id="path5790" />
          </g>
        </g>
      </g>
    </g>
    <g
       transform="matrix(1.25,0,0,-1.25,180.26606,1836.7787)"
       id="g5792">
      <g
         id="g5794"
         clip-path="url(#clipPath5796)">
        <g
           id="g5800"
           transform="translate(351,742.8926)">
          <path
             inkscape:connector-curvature="0"
             d="m 0,0 c 0,-2.485 -8.059,-4.5 -18,-4.5 -9.941,0 -18,2.015 -18,4.5 0,2.485 8.059,4.5 18,4.5 C -8.059,4.5 0,2.485 0,0"
             style="fill:#f2f2f3;fill-opacity:1;fill-rule:nonzero;stroke:none"
             id="path5802" />
        </g>
      </g>
    </g>
    <g
       transform="matrix(1.25,0,0,-1.25,180.26606,1836.7787)"
       id="g5804">
      <g
         id="g5806">
        <g
           id="g5812">
          <g
             id="g5814">
            <path
               inkscape:connector-curvature="0"
               d="m 319.5,743.174 c 0,-2.175 6.043,-3.937 13.5,-3.937 l 0,0 c 7.456,0 13.5,1.762 13.5,3.937 l 0,0 c 0,2.175 -6.044,3.938 -13.5,3.938 l 0,0 c -7.457,0 -13.5,-1.763 -13.5,-3.938"
               style="fill:url(#linearGradient5816);stroke:none"
               id="path5822" />
          </g>
        </g>
      </g>
    </g>
    <g
       transform="matrix(1.25,0,0,-1.25,180.26606,1836.7787)"
       id="g5824">
      <g
         id="g5826">
        <g
           id="g5832">
          <g
             id="g5834">
            <path
               inkscape:connector-curvature="0"
               d="m 333,738.392 c -15.75,-0.28 -18,4.22 -18,4.22 l 0,0 0,-11.25 c 0,0 4.5,-4.5 18,-4.5 l 0,0 c 13.5,0 18,4.5 18,4.5 l 0,0 0,11.25 c 0,0 -2.25,-3.938 -18,-4.22"
               style="fill:url(#linearGradient5836);stroke:none"
               id="path5842" />
          </g>
        </g>
      </g>
    </g>
    <g
       transform="matrix(1.25,0,0,-1.25,180.26606,1836.7787)"
       id="g5844">
      <g
         id="g5846"
         clip-path="url(#clipPath5848)">
        <g
           id="g5852"
           transform="translate(351,758.6426)">
          <path
             inkscape:connector-curvature="0"
             d="m 0,0 c 0,-2.485 -8.059,-4.5 -18,-4.5 -9.941,0 -18,2.015 -18,4.5 0,2.485 8.059,4.5 18,4.5 C -8.059,4.5 0,2.485 0,0"
             style="fill:#ffffff;fill-opacity:1;fill-rule:nonzero;stroke:none"
             id="path5854" />
        </g>
      </g>
    </g>
    <g
       transform="matrix(1.25,0,0,-1.25,180.26606,1836.7787)"
       id="g5856">
      <g
         id="g5858">
        <g
           id="g5864">
          <g
             id="g5866">
            <path
               inkscape:connector-curvature="0"
               d="m 319.5,758.924 c 0,-2.175 6.043,-3.937 13.5,-3.937 l 0,0 c 7.456,0 13.5,1.762 13.5,3.937 l 0,0 c 0,2.175 -6.044,3.938 -13.5,3.938 l 0,0 c -7.457,0 -13.5,-1.763 -13.5,-3.938"
               style="fill:url(#linearGradient5868);stroke:none"
               id="path5874" />
          </g>
        </g>
      </g>
    </g>
    <g
       transform="matrix(1.25,0,0,-1.25,180.26606,1836.7787)"
       id="g5876">
      <g
         id="g5878">
        <g
           id="g5884">
          <g
             id="g5886">
            <path
               inkscape:connector-curvature="0"
               d="m 333,754.142 c -15.75,-0.28 -18,4.22 -18,4.22 l 0,0 0,-11.25 c 0,0 4.5,-4.5 18,-4.5 l 0,0 c 13.5,0 18,4.5 18,4.5 l 0,0 0,11.25 c 0,0 -2.25,-3.938 -18,-4.22"
               style="fill:url(#linearGradient5888);stroke:none"
               id="path5894" />
          </g>
        </g>
      </g>
    </g>
    <g
       transform="matrix(1.25,0,0,-1.25,180.26606,1836.7787)"
       id="g5948">
      <g
         id="g5950">
        <g
           id="g5956">
          <g
             id="g5958">
            <path
               inkscape:connector-curvature="0"
               d="m 342,775.111 27,-27 -27,0 0,27 z"
               style="fill:url(#linearGradient5960);stroke:none"
               id="path5966" />
          </g>
        </g>
      </g>
    </g>
    <g
       id="g5968"
       transform="matrix(1.25,0,0,-1.25,607.76606,867.89018)">
      <path
         inkscape:connector-curvature="0"
         d="M 0,0 27,-27 0,-27 0,0 z"
         style="fill:none;stroke:#7795a4;stroke-width:2;stroke-linecap:butt;stroke-linejoin:bevel;stroke-miterlimit:4;stroke-opacity:1;stroke-dasharray:none"
         id="path5970" />
    </g>
  </g>
</svg>
