<?xml version="1.0" encoding="UTF-8" standalone="no"?>
<!-- Created with Inkscape (http://www.inkscape.org/) -->

<svg
   xmlns:dc="http://purl.org/dc/elements/1.1/"
   xmlns:cc="http://creativecommons.org/ns#"
   xmlns:rdf="http://www.w3.org/1999/02/22-rdf-syntax-ns#"
   xmlns:svg="http://www.w3.org/2000/svg"
   xmlns="http://www.w3.org/2000/svg"
   xmlns:sodipodi="http://sodipodi.sourceforge.net/DTD/sodipodi-0.dtd"
   xmlns:inkscape="http://www.inkscape.org/namespaces/inkscape"
   width="92.5"
   height="126.25"
   id="svg9183"
   version="1.1"
   inkscape:version="0.48.3.1 r9886"
   sodipodi:docname="DISK_IMAGE.svg">
  <defs
     id="defs9185">
    <clipPath
       clipPathUnits="userSpaceOnUse"
       id="clipPath2446">
      <path
         inkscape:connector-curvature="0"
         d="m 0,932 1190.551,0 0,-932 L 0,0 0,932 z"
         id="path2448" />
    </clipPath>
    <linearGradient
       x1="0"
       y1="0"
       x2="1"
       y2="0"
       gradientUnits="userSpaceOnUse"
       gradientTransform="matrix(-2.5e-6,57.874023,57.874023,2.5e-6,238.38379,848.2373)"
       spreadMethod="pad"
       id="linearGradient2430">
      <stop
         style="stop-opacity:1;stop-color:#a78229"
         offset="0"
         id="stop2432" />
      <stop
         style="stop-opacity:1;stop-color:#dec028"
         offset="0.532995"
         id="stop2434" />
      <stop
         style="stop-opacity:1;stop-color:#dec028"
         offset="0.532995"
         id="stop2436" />
      <stop
         style="stop-opacity:1;stop-color:#a37e29"
         offset="1"
         id="stop2438" />
    </linearGradient>
    <clipPath
       clipPathUnits="userSpaceOnUse"
       id="clipPath2410">
      <path
         inkscape:connector-curvature="0"
         d="m 0,932 1190.551,0 0,-932 L 0,0 0,932 z"
         id="path2412" />
    </clipPath>
    <linearGradient
       x1="0"
       y1="0"
       x2="1"
       y2="0"
       gradientUnits="userSpaceOnUse"
       gradientTransform="matrix(13.500284,13.500284,13.500284,-13.500284,249.69385,882.11084)"
       spreadMethod="pad"
       id="linearGradient2398">
      <stop
         style="stop-opacity:1;stop-color:#ffffff"
         offset="0"
         id="stop2400" />
      <stop
         style="stop-opacity:1;stop-color:#f0c629"
         offset="1"
         id="stop2402" />
    </linearGradient>
    <clipPath
       clipPathUnits="userSpaceOnUse"
       id="clipPath2374">
      <path
         inkscape:connector-curvature="0"
         d="m 0,932 1190.551,0 0,-932 L 0,0 0,932 z"
         id="path2376" />
    </clipPath>
    <linearGradient
       x1="0"
       y1="0"
       x2="1"
       y2="0"
       gradientUnits="userSpaceOnUse"
       gradientTransform="matrix(-4.3e-6,99,99,4.3e-6,240.69336,810.11133)"
       spreadMethod="pad"
       id="linearGradient2362">
      <stop
         style="stop-opacity:1;stop-color:#f0c629"
         offset="0"
         id="stop2364" />
      <stop
         style="stop-opacity:1;stop-color:#ffffff"
         offset="1"
         id="stop2366" />
    </linearGradient>
    <linearGradient
       x1="0"
       y1="0"
       x2="1"
       y2="0"
       gradientUnits="userSpaceOnUse"
       gradientTransform="matrix(13.499939,13.499939,13.499939,-13.499939,429.64111,882.11084)"
       spreadMethod="pad"
       id="linearGradient5936">
      <stop
         style="stop-opacity:1;stop-color:#ffffff"
         offset="0"
         id="stop5938" />
      <stop
         style="stop-opacity:1;stop-color:#f0c629"
         offset="1"
         id="stop5940" />
    </linearGradient>
    <clipPath
       clipPathUnits="userSpaceOnUse"
       id="clipPath5668">
      <path
         inkscape:connector-curvature="0"
         d="m 0,932 1190.551,0 0,-932 L 0,0 0,932 z"
         id="path5670" />
    </clipPath>
    <clipPath
       clipPathUnits="userSpaceOnUse"
       id="clipPath5676">
      <path
         inkscape:connector-curvature="0"
         d="m 397.613,891.111 45,0 0,-45 -45,0 0,45 z"
         id="path5678" />
    </clipPath>
    <linearGradient
       x1="0"
       y1="0"
       x2="1"
       y2="0"
       gradientUnits="userSpaceOnUse"
       gradientTransform="matrix(-2e-6,45,45,2e-6,420.11328,846.11133)"
       spreadMethod="pad"
       id="linearGradient5684">
      <stop
         style="stop-opacity:1;stop-color:#a78229"
         offset="0"
         id="stop5686" />
      <stop
         style="stop-opacity:1;stop-color:#dec028"
         offset="0.532995"
         id="stop5688" />
      <stop
         style="stop-opacity:1;stop-color:#dec028"
         offset="0.532995"
         id="stop5690" />
      <stop
         style="stop-opacity:1;stop-color:#a37e29"
         offset="1"
         id="stop5692" />
    </linearGradient>
    <clipPath
       clipPathUnits="userSpaceOnUse"
       id="clipPath5712">
      <path
         inkscape:connector-curvature="0"
         d="m 417.301,871.424 5.625,0 0,-5.625 -5.625,0 0,5.625 z"
         id="path5714" />
    </clipPath>
    <clipPath
       clipPathUnits="userSpaceOnUse"
       id="clipPath5728">
      <path
         inkscape:connector-curvature="0"
         d="m 411.676,877.049 16.875,0 0,-16.875 -16.875,0 0,16.875 z"
         id="path5730" />
    </clipPath>
    <clipPath
       clipPathUnits="userSpaceOnUse"
       id="clipPath5652">
      <path
         inkscape:connector-curvature="0"
         d="m 0,932 1190.551,0 0,-932 L 0,0 0,932 z"
         id="path5654" />
    </clipPath>
    <linearGradient
       x1="0"
       y1="0"
       x2="1"
       y2="0"
       gradientUnits="userSpaceOnUse"
       gradientTransform="matrix(-4.3e-6,99,99,4.3e-6,420.11328,810.11133)"
       spreadMethod="pad"
       id="linearGradient5640">
      <stop
         style="stop-opacity:1;stop-color:#f0c629"
         offset="0"
         id="stop5642" />
      <stop
         style="stop-opacity:1;stop-color:#ffffff"
         offset="1"
         id="stop5644" />
    </linearGradient>
    <clipPath
       clipPathUnits="userSpaceOnUse"
       id="clipPath1894">
      <path
         inkscape:connector-curvature="0"
         d="m 0,932 1190.551,0 0,-932 L 0,0 0,932 z"
         id="path1896" />
    </clipPath>
    <linearGradient
       x1="0"
       y1="0"
       x2="1"
       y2="0"
       gradientUnits="userSpaceOnUse"
       gradientTransform="matrix(13.500284,13.500284,13.500284,-13.500284,612,747.11133)"
       spreadMethod="pad"
       id="linearGradient1882">
      <stop
         style="stop-opacity:1;stop-color:#ffffff"
         offset="0"
         id="stop1884" />
      <stop
         style="stop-opacity:1;stop-color:#96a8b3"
         offset="1"
         id="stop1886" />
    </linearGradient>
    <linearGradient
       x1="0"
       y1="0"
       x2="1"
       y2="0"
       gradientUnits="userSpaceOnUse"
       gradientTransform="matrix(-1.7e-6,39.448242,39.448242,1.7e-6,617.78223,713.8877)"
       spreadMethod="pad"
       id="linearGradient916">
      <stop
         style="stop-opacity:1;stop-color:#8a9ea9"
         offset="0"
         id="stop918" />
      <stop
         style="stop-opacity:1;stop-color:#4c6977"
         offset="0.989848"
         id="stop920" />
      <stop
         style="stop-opacity:1;stop-color:#4c6977"
         offset="1"
         id="stop922" />
    </linearGradient>
    <linearGradient
       x1="0"
       y1="0"
       x2="1"
       y2="0"
       gradientUnits="userSpaceOnUse"
       gradientTransform="matrix(-1.7e-6,39.448242,39.448242,1.7e-6,587.52637,713.8877)"
       spreadMethod="pad"
       id="linearGradient894">
      <stop
         style="stop-opacity:1;stop-color:#8a9ea9"
         offset="0"
         id="stop896" />
      <stop
         style="stop-opacity:1;stop-color:#4c6977"
         offset="0.989848"
         id="stop898" />
      <stop
         style="stop-opacity:1;stop-color:#4c6977"
         offset="1"
         id="stop900" />
    </linearGradient>
    <linearGradient
       x1="0"
       y1="0"
       x2="1"
       y2="0"
       gradientUnits="userSpaceOnUse"
       gradientTransform="matrix(-4.3e-6,99,99,4.3e-6,603,675.11133)"
       spreadMethod="pad"
       id="linearGradient866">
      <stop
         style="stop-opacity:1;stop-color:#c9d5dc"
         offset="0"
         id="stop868" />
      <stop
         style="stop-opacity:1;stop-color:#ffffff"
         offset="1"
         id="stop870" />
    </linearGradient>
  </defs>
  <sodipodi:namedview
     id="base"
     pagecolor="#ffffff"
     bordercolor="#666666"
     borderopacity="1.0"
     inkscape:pageopacity="0.0"
     inkscape:pageshadow="2"
     inkscape:zoom="1.979899"
     inkscape:cx="-117.82924"
     inkscape:cy="26.90758"
     inkscape:document-units="px"
     inkscape:current-layer="layer1"
     showgrid="false"
     fit-margin-top="0"
     fit-margin-left="0"
     fit-margin-right="0"
     fit-margin-bottom="0"
     inkscape:window-width="1920"
     inkscape:window-height="1031"
     inkscape:window-x="1280"
     inkscape:window-y="0"
     inkscape:window-maximized="1" />
  <metadata
     id="metadata9188">
    <rdf:RDF>
      <cc:Work
         rdf:about="">
        <dc:format>image/svg+xml</dc:format>
        <dc:type
           rdf:resource="http://purl.org/dc/dcmitype/StillImage" />
        <dc:title></dc:title>
      </cc:Work>
    </rdf:RDF>
  </metadata>
  <g
     inkscape:label="Layer 1"
     inkscape:groupmode="layer"
     id="layer1"
     transform="translate(-698.90057,-774.75446)">
    <g
       transform="matrix(1.25,0,0,-1.25,-8.5994319,1743.6436)"
       id="g854">
      <g
         id="g856">
        <g
           id="g862">
          <g
             id="g864">
            <path
               inkscape:connector-curvature="0"
               d="m 612,774.111 27,-27 0,-72 -72,0 0,99 45,0 z"
               style="fill:url(#linearGradient866);stroke:none"
               id="path872" />
          </g>
        </g>
      </g>
    </g>
    <g
       id="g874"
       transform="matrix(1.25,0,0,-1.25,756.40057,776.00446)">
      <path
         inkscape:connector-curvature="0"
         d="m 0,0 27,-27 0,-72 -72,0 0,99 45,0 z"
         style="fill:none;stroke:#7795a4;stroke-width:2;stroke-linecap:butt;stroke-linejoin:miter;stroke-miterlimit:4;stroke-opacity:1;stroke-dasharray:none"
         id="path876" />
    </g>
    <text
       style="font-size:15px;fill:#333333"
       y="891.00446"
       x="711.1861"
       id="text878">
      <tspan
         style="font-size:35px;font-variant:normal;font-weight:bold;font-stretch:normal;writing-mode:lr-tb;fill:#333333;fill-opacity:1;fill-rule:nonzero;stroke:none;font-family:Arial;-inkscape-font-specification:Arial-BoldMT"
         sodipodi:role="line"
         id="tspan880"
         x="711.1861"
         y="891.00446">XXX</tspan>
    </text>
    <g
       transform="matrix(1.25,0,0,-1.25,-8.5994319,1743.6436)"
       id="g882">
      <g
         id="g884">
        <g
           id="g890">
          <g
             id="g892">
            <path
               inkscape:connector-curvature="0"
               d="m 593.458,753.336 c -1.793,0 -3.107,-0.123 -3.94,-0.37 l 0,0 c -1.232,-0.369 -2.169,-0.871 -2.812,-1.508 l 0,0 c -0.645,-0.637 -1.089,-1.478 -1.335,-2.525 l 0,0 c -0.246,-1.047 -0.369,-2.897 -0.369,-5.551 l 0,0 c 0,-1.629 -0.055,-2.772 -0.164,-3.428 l 0,0 c -0.137,-0.877 -0.391,-1.606 -0.76,-2.186 l 0,0 c -0.369,-0.583 -0.808,-0.996 -1.314,-1.241 l 0,0 c -0.505,-0.247 -1.259,-0.398 -2.257,-0.453 l 0,0 0,-4.926 c 1.259,-0.069 2.194,-0.338 2.802,-0.81 l 0,0 c 0.608,-0.472 1.064,-1.256 1.365,-2.351 l 0,0 c 0.218,-0.752 0.328,-2.387 0.328,-4.905 l 0,0 c 0,-2.161 0.115,-3.745 0.349,-4.751 l 0,0 c 0.233,-1.006 0.687,-1.851 1.364,-2.535 l 0,0 c 0.677,-0.684 1.51,-1.173 2.494,-1.468 l 0,0 c 0.985,-0.294 2.401,-0.44 4.249,-0.44 l 0,0 1.088,0 0,4.926 c -1.478,0 -2.44,0.092 -2.884,0.276 l 0,0 c -0.444,0.185 -0.777,0.455 -0.995,0.811 l 0,0 c -0.218,0.355 -0.329,0.985 -0.329,1.888 l 0,0 c 0,0.63 -0.048,2.079 -0.144,4.352 l 0,0 c -0.082,1.491 -0.258,2.68 -0.533,3.571 l 0,0 c -0.274,0.888 -0.667,1.644 -1.181,2.268 l 0,0 c -0.512,0.623 -1.172,1.165 -1.98,1.632 l 0,0 c 0.916,0.587 1.599,1.155 2.042,1.703 l 0,0 c 0.444,0.547 0.811,1.241 1.098,2.084 l 0,0 c 0.287,0.84 0.466,1.939 0.534,3.294 l 0,0 c 0.123,2.407 0.185,4.043 0.185,4.906 l 0,0 c 0,0.847 0.103,1.446 0.308,1.794 l 0,0 c 0.205,0.35 0.523,0.61 0.954,0.781 l 0,0 c 0.431,0.171 1.406,0.257 2.925,0.257 l 0,0 0,4.905 -1.088,0 z"
               style="fill:url(#linearGradient894);stroke:none"
               id="path902" />
          </g>
        </g>
      </g>
    </g>
    <g
       transform="matrix(1.25,0,0,-1.25,-8.5994319,1743.6436)"
       id="g904">
      <g
         id="g906">
        <g
           id="g912">
          <g
             id="g914">
            <path
               inkscape:connector-curvature="0"
               d="m 610.763,753.336 0,-4.905 c 1.547,0 2.542,-0.093 2.986,-0.278 l 0,0 c 0.444,-0.185 0.752,-0.449 0.924,-0.789 l 0,0 c 0.172,-0.343 0.264,-1.027 0.277,-2.053 l 0,0 c 0.069,-3.257 0.177,-5.364 0.329,-6.322 l 0,0 c 0.233,-1.396 0.669,-2.545 1.313,-3.448 l 0,0 c 0.464,-0.63 1.204,-1.272 2.216,-1.929 l 0,0 c -0.78,-0.452 -1.419,-0.975 -1.918,-1.57 l 0,0 c -0.501,-0.596 -0.901,-1.322 -1.202,-2.176 l 0,0 c -0.3,-0.855 -0.485,-1.995 -0.553,-3.418 l 0,0 c -0.111,-2.353 -0.167,-3.947 -0.175,-4.782 l 0,0 c -0.007,-0.834 -0.115,-1.427 -0.328,-1.776 l 0,0 c -0.213,-0.348 -0.544,-0.615 -0.997,-0.8 l 0,0 c -0.451,-0.184 -1.407,-0.276 -2.872,-0.276 l 0,0 0,-4.926 1.088,0 c 1.792,0 3.106,0.122 3.94,0.369 l 0,0 c 1.245,0.369 2.189,0.872 2.833,1.508 l 0,0 c 0.643,0.636 1.085,1.482 1.323,2.535 l 0,0 c 0.239,1.055 0.36,2.908 0.36,5.562 l 0,0 c 0,1.614 0.054,2.75 0.164,3.407 l 0,0 c 0.151,0.875 0.407,1.604 0.769,2.186 l 0,0 c 0.362,0.581 0.798,0.995 1.303,1.241 l 0,0 c 0.507,0.247 1.26,0.397 2.259,0.452 l 0,0 0,4.926 c -1.26,0.068 -2.196,0.339 -2.812,0.812 l 0,0 c -0.616,0.471 -1.075,1.253 -1.376,2.35 l 0,0 c -0.204,0.765 -0.307,2.401 -0.307,4.905 l 0,0 c 0,2.161 -0.121,3.745 -0.36,4.752 l 0,0 c -0.238,1.004 -0.694,1.853 -1.364,2.545 l 0,0 c -0.67,0.69 -1.499,1.18 -2.484,1.467 l 0,0 c -0.985,0.287 -2.401,0.431 -4.248,0.431 l 0,0 -1.088,0 z"
               style="fill:url(#linearGradient916);stroke:none"
               id="path924" />
          </g>
        </g>
      </g>
    </g>
    <g
       transform="matrix(1.25,0,0,-1.25,-8.5994319,1743.6436)"
       id="g1870">
      <g
         id="g1872">
        <g
           id="g1878">
          <g
             id="g1880">
            <path
               inkscape:connector-curvature="0"
               d="m 612,747.112 27,0 -27,27 0,-27 z"
               style="fill:url(#linearGradient1882);stroke:none"
               id="path1888" />
          </g>
        </g>
      </g>
    </g>
    <g
       transform="matrix(1.25,0,0,-1.25,-8.5994319,1743.6436)"
       id="g1890">
      <g
         id="g1892"
         clip-path="url(#clipPath1894)">
        <g
           id="g1898"
           transform="translate(612,774.1113)">
          <path
             inkscape:connector-curvature="0"
             d="M 0,0 27,-27 0,-27 0,0 z"
             style="fill:none;stroke:#7795a4;stroke-width:2;stroke-linecap:butt;stroke-linejoin:bevel;stroke-miterlimit:4;stroke-opacity:1;stroke-dasharray:none"
             id="path1900" />
        </g>
      </g>
    </g>
  </g>
</svg>
