<?xml version="1.0" encoding="UTF-8" standalone="no"?>
<!-- Created with Inkscape (http://www.inkscape.org/) -->

<svg
   xmlns:dc="http://purl.org/dc/elements/1.1/"
   xmlns:cc="http://creativecommons.org/ns#"
   xmlns:rdf="http://www.w3.org/1999/02/22-rdf-syntax-ns#"
   xmlns:svg="http://www.w3.org/2000/svg"
   xmlns="http://www.w3.org/2000/svg"
   xmlns:sodipodi="http://sodipodi.sourceforge.net/DTD/sodipodi-0.dtd"
   xmlns:inkscape="http://www.inkscape.org/namespaces/inkscape"
   width="92.807564"
   height="126.25"
   id="svg9183"
   version="1.1"
   inkscape:version="0.48.3.1 r9886"
   sodipodi:docname="COMPRESSED_FILES.svg">
  <defs
     id="defs9185">
    <clipPath
       clipPathUnits="userSpaceOnUse"
       id="clipPath2446">
      <path
         inkscape:connector-curvature="0"
         d="m 0,932 1190.551,0 0,-932 L 0,0 0,932 z"
         id="path2448" />
    </clipPath>
    <linearGradient
       x1="0"
       y1="0"
       x2="1"
       y2="0"
       gradientUnits="userSpaceOnUse"
       gradientTransform="matrix(-2.5e-6,57.874023,57.874023,2.5e-6,238.38379,848.2373)"
       spreadMethod="pad"
       id="linearGradient2430">
      <stop
         style="stop-opacity:1;stop-color:#a78229"
         offset="0"
         id="stop2432" />
      <stop
         style="stop-opacity:1;stop-color:#dec028"
         offset="0.532995"
         id="stop2434" />
      <stop
         style="stop-opacity:1;stop-color:#dec028"
         offset="0.532995"
         id="stop2436" />
      <stop
         style="stop-opacity:1;stop-color:#a37e29"
         offset="1"
         id="stop2438" />
    </linearGradient>
    <clipPath
       clipPathUnits="userSpaceOnUse"
       id="clipPath2410">
      <path
         inkscape:connector-curvature="0"
         d="m 0,932 1190.551,0 0,-932 L 0,0 0,932 z"
         id="path2412" />
    </clipPath>
    <linearGradient
       x1="0"
       y1="0"
       x2="1"
       y2="0"
       gradientUnits="userSpaceOnUse"
       gradientTransform="matrix(13.500284,13.500284,13.500284,-13.500284,249.69385,882.11084)"
       spreadMethod="pad"
       id="linearGradient2398">
      <stop
         style="stop-opacity:1;stop-color:#ffffff"
         offset="0"
         id="stop2400" />
      <stop
         style="stop-opacity:1;stop-color:#f0c629"
         offset="1"
         id="stop2402" />
    </linearGradient>
    <clipPath
       clipPathUnits="userSpaceOnUse"
       id="clipPath2374">
      <path
         inkscape:connector-curvature="0"
         d="m 0,932 1190.551,0 0,-932 L 0,0 0,932 z"
         id="path2376" />
    </clipPath>
    <linearGradient
       x1="0"
       y1="0"
       x2="1"
       y2="0"
       gradientUnits="userSpaceOnUse"
       gradientTransform="matrix(-4.3e-6,99,99,4.3e-6,240.69336,810.11133)"
       spreadMethod="pad"
       id="linearGradient2362">
      <stop
         style="stop-opacity:1;stop-color:#f0c629"
         offset="0"
         id="stop2364" />
      <stop
         style="stop-opacity:1;stop-color:#ffffff"
         offset="1"
         id="stop2366" />
    </linearGradient>
    <linearGradient
       x1="0"
       y1="0"
       x2="1"
       y2="0"
       gradientUnits="userSpaceOnUse"
       gradientTransform="matrix(13.499939,13.499939,13.499939,-13.499939,429.64111,882.11084)"
       spreadMethod="pad"
       id="linearGradient5936">
      <stop
         style="stop-opacity:1;stop-color:#ffffff"
         offset="0"
         id="stop5938" />
      <stop
         style="stop-opacity:1;stop-color:#f0c629"
         offset="1"
         id="stop5940" />
    </linearGradient>
    <clipPath
       clipPathUnits="userSpaceOnUse"
       id="clipPath5668">
      <path
         inkscape:connector-curvature="0"
         d="m 0,932 1190.551,0 0,-932 L 0,0 0,932 z"
         id="path5670" />
    </clipPath>
    <clipPath
       clipPathUnits="userSpaceOnUse"
       id="clipPath5676">
      <path
         inkscape:connector-curvature="0"
         d="m 397.613,891.111 45,0 0,-45 -45,0 0,45 z"
         id="path5678" />
    </clipPath>
    <linearGradient
       x1="0"
       y1="0"
       x2="1"
       y2="0"
       gradientUnits="userSpaceOnUse"
       gradientTransform="matrix(-2e-6,45,45,2e-6,420.11328,846.11133)"
       spreadMethod="pad"
       id="linearGradient5684">
      <stop
         style="stop-opacity:1;stop-color:#a78229"
         offset="0"
         id="stop5686" />
      <stop
         style="stop-opacity:1;stop-color:#dec028"
         offset="0.532995"
         id="stop5688" />
      <stop
         style="stop-opacity:1;stop-color:#dec028"
         offset="0.532995"
         id="stop5690" />
      <stop
         style="stop-opacity:1;stop-color:#a37e29"
         offset="1"
         id="stop5692" />
    </linearGradient>
    <clipPath
       clipPathUnits="userSpaceOnUse"
       id="clipPath5712">
      <path
         inkscape:connector-curvature="0"
         d="m 417.301,871.424 5.625,0 0,-5.625 -5.625,0 0,5.625 z"
         id="path5714" />
    </clipPath>
    <clipPath
       clipPathUnits="userSpaceOnUse"
       id="clipPath5728">
      <path
         inkscape:connector-curvature="0"
         d="m 411.676,877.049 16.875,0 0,-16.875 -16.875,0 0,16.875 z"
         id="path5730" />
    </clipPath>
    <clipPath
       clipPathUnits="userSpaceOnUse"
       id="clipPath5652">
      <path
         inkscape:connector-curvature="0"
         d="m 0,932 1190.551,0 0,-932 L 0,0 0,932 z"
         id="path5654" />
    </clipPath>
    <linearGradient
       x1="0"
       y1="0"
       x2="1"
       y2="0"
       gradientUnits="userSpaceOnUse"
       gradientTransform="matrix(-4.3e-6,99,99,4.3e-6,420.11328,810.11133)"
       spreadMethod="pad"
       id="linearGradient5640">
      <stop
         style="stop-opacity:1;stop-color:#f0c629"
         offset="0"
         id="stop5642" />
      <stop
         style="stop-opacity:1;stop-color:#ffffff"
         offset="1"
         id="stop5644" />
    </linearGradient>
  </defs>
  <sodipodi:namedview
     id="base"
     pagecolor="#ffffff"
     bordercolor="#666666"
     borderopacity="1.0"
     inkscape:pageopacity="0.0"
     inkscape:pageshadow="2"
     inkscape:zoom="1.979899"
     inkscape:cx="-41.850777"
     inkscape:cy="111.26485"
     inkscape:document-units="px"
     inkscape:current-layer="layer1"
     showgrid="false"
     fit-margin-top="0"
     fit-margin-left="0"
     fit-margin-right="0"
     fit-margin-bottom="0"
     inkscape:window-width="1920"
     inkscape:window-height="1031"
     inkscape:window-x="1280"
     inkscape:window-y="0"
     inkscape:window-maximized="1" />
  <metadata
     id="metadata9188">
    <rdf:RDF>
      <cc:Work
         rdf:about="">
        <dc:format>image/svg+xml</dc:format>
        <dc:type
           rdf:resource="http://purl.org/dc/dcmitype/StillImage" />
        <dc:title></dc:title>
      </cc:Work>
    </rdf:RDF>
  </metadata>
  <g
     inkscape:label="Layer 1"
     inkscape:groupmode="layer"
     id="layer1"
     transform="translate(-622.92211,-677.28427)">
    <g
       transform="matrix(1.25,0,0,-1.25,144.03049,1814.9234)"
       id="g5628">
      <g
         id="g5630">
        <g
           id="g5636">
          <g
             id="g5638">
            <path
               inkscape:connector-curvature="0"
               d="m 384.114,909.112 0,-99 72,0 0,72 -27,27 -45,0 z"
               style="fill:url(#linearGradient5640);stroke:none"
               id="path5646" />
          </g>
        </g>
      </g>
    </g>
    <g
       transform="matrix(1.25,0,0,-1.25,144.03049,1814.9234)"
       id="g5648">
      <g
         id="g5650"
         clip-path="url(#clipPath5652)">
        <g
           id="g5656"
           transform="translate(429.1133,909.1113)">
          <path
             inkscape:connector-curvature="0"
             d="m 0,0 27,-27 0,-72 -72,0 0,99 45,0 z"
             style="fill:none;stroke:#bb9f29;stroke-width:2;stroke-linecap:butt;stroke-linejoin:miter;stroke-miterlimit:4;stroke-opacity:1;stroke-dasharray:none"
             id="path5658" />
        </g>
      </g>
    </g>
    <text
       style="font-size:15px;fill:#333333"
       y="793.53424"
       x="634.27698"
       id="text5660">
      <tspan
         style="font-size:35px;font-variant:normal;font-weight:bold;font-stretch:normal;writing-mode:lr-tb;fill:#333333;fill-opacity:1;fill-rule:nonzero;stroke:none;font-family:Arial;-inkscape-font-specification:Arial-BoldMT"
         x="634.27698"
         y="793.53424"
         sodipodi:role="line"
         id="tspan5662">XXX</tspan>
    </text>
    <g
       transform="matrix(1.25,0,0,-1.25,144.03049,1814.9234)"
       id="g5664">
      <g
         id="g5666"
         clip-path="url(#clipPath5668)">
        <g
           id="g5672">
          <g
             id="g5674" />
          <g
             id="g5694">
            <g
               style="opacity:0.69999701"
               clip-path="url(#clipPath5676)"
               id="g5696">
              <g
                 id="g5698">
                <g
                   id="g5700">
                  <g
                     id="g5702">
                    <g
                       id="g5704">
                      <path
                         inkscape:connector-curvature="0"
                         d="m 420.113,860.877 c -4.271,0 -7.734,3.463 -7.734,7.734 0,4.272 3.463,7.735 7.734,7.735 4.272,0 7.735,-3.463 7.735,-7.735 0,-4.271 -3.463,-7.734 -7.735,-7.734 m 0,30.234 c -12.426,0 -22.5,-10.073 -22.5,-22.5 0,-12.426 10.074,-22.5 22.5,-22.5 12.427,0 22.5,10.074 22.5,22.5 0,12.427 -10.073,22.5 -22.5,22.5"
                         style="fill:url(#linearGradient5684);stroke:none"
                         id="path5706" />
                    </g>
                  </g>
                </g>
              </g>
            </g>
          </g>
        </g>
        <g
           id="g5708">
          <g
             id="g5710" />
          <g
             id="g5716">
            <g
               style="opacity:0.69999701"
               clip-path="url(#clipPath5712)"
               id="g5718">
              <g
                 transform="translate(420.1133,867.6445)"
                 id="g5720">
                <path
                   inkscape:connector-curvature="0"
                   d="M 0,0 C -0.534,0 -0.967,0.433 -0.967,0.967 -0.967,1.5 -0.534,1.934 0,1.934 0.534,1.934 0.967,1.5 0.967,0.967 0.967,0.433 0.534,0 0,0 m 0,3.779 c -1.554,0 -2.813,-1.259 -2.813,-2.812 0,-1.553 1.259,-2.813 2.813,-2.813 1.554,0 2.813,1.26 2.813,2.813 C 2.813,2.52 1.554,3.779 0,3.779"
                   style="fill:#a37e29;fill-opacity:1;fill-rule:nonzero;stroke:none"
                   id="path5722" />
              </g>
            </g>
          </g>
        </g>
        <g
           id="g5724">
          <g
             id="g5726" />
          <g
             id="g5732">
            <g
               style="opacity:0.69999701"
               clip-path="url(#clipPath5728)"
               id="g5734">
              <g
                 transform="translate(420.1133,861.5801)"
                 id="g5736">
                <path
                   inkscape:connector-curvature="0"
                   d="m 0,0 c -3.883,0 -7.031,3.148 -7.031,7.031 0,3.884 3.148,7.032 7.031,7.032 3.883,0 7.031,-3.148 7.031,-7.032 C 7.031,3.148 3.883,0 0,0 m 0,15.469 c -4.66,0 -8.438,-3.778 -8.438,-8.438 0,-4.659 3.778,-8.437 8.438,-8.437 4.66,0 8.438,3.778 8.438,8.437 0,4.66 -3.778,8.438 -8.438,8.438"
                   style="fill:#a37e29;fill-opacity:1;fill-rule:nonzero;stroke:none"
                   id="path5738" />
              </g>
            </g>
          </g>
        </g>
      </g>
    </g>
    <g
       transform="matrix(1.25,0,0,-1.25,144.03049,1814.9234)"
       id="g5924">
      <g
         id="g5926">
        <g
           id="g5932">
          <g
             id="g5934">
            <path
               inkscape:connector-curvature="0"
               d="m 429.641,909.111 27,-27 -27,0 0,27 z"
               style="fill:url(#linearGradient5936);stroke:none"
               id="path5942" />
          </g>
        </g>
      </g>
    </g>
    <g
       id="g5944"
       transform="matrix(1.25,0,0,-1.25,681.08124,678.53426)">
      <path
         inkscape:connector-curvature="0"
         d="M 0,0 27,-27 0,-27 0,0 z"
         style="fill:none;stroke:#bb9f29;stroke-width:2;stroke-linecap:butt;stroke-linejoin:bevel;stroke-miterlimit:4;stroke-opacity:1;stroke-dasharray:none"
         id="path5946" />
    </g>
  </g>
</svg>
