<?xml version="1.0" encoding="UTF-8" standalone="no"?>
<!-- Created with Inkscape (http://www.inkscape.org/) -->

<svg
   xmlns:dc="http://purl.org/dc/elements/1.1/"
   xmlns:cc="http://creativecommons.org/ns#"
   xmlns:rdf="http://www.w3.org/1999/02/22-rdf-syntax-ns#"
   xmlns:svg="http://www.w3.org/2000/svg"
   xmlns="http://www.w3.org/2000/svg"
   xmlns:sodipodi="http://sodipodi.sourceforge.net/DTD/sodipodi-0.dtd"
   xmlns:inkscape="http://www.inkscape.org/namespaces/inkscape"
   width="92.5"
   height="126.25"
   id="svg9183"
   version="1.1"
   inkscape:version="0.48.3.1 r9886"
   sodipodi:docname="MISC_FILES.svg">
  <defs
     id="defs9185">
    <clipPath
       clipPathUnits="userSpaceOnUse"
       id="clipPath2446">
      <path
         inkscape:connector-curvature="0"
         d="m 0,932 1190.551,0 0,-932 L 0,0 0,932 z"
         id="path2448" />
    </clipPath>
    <linearGradient
       x1="0"
       y1="0"
       x2="1"
       y2="0"
       gradientUnits="userSpaceOnUse"
       gradientTransform="matrix(-2.5e-6,57.874023,57.874023,2.5e-6,238.38379,848.2373)"
       spreadMethod="pad"
       id="linearGradient2430">
      <stop
         style="stop-opacity:1;stop-color:#a78229"
         offset="0"
         id="stop2432" />
      <stop
         style="stop-opacity:1;stop-color:#dec028"
         offset="0.532995"
         id="stop2434" />
      <stop
         style="stop-opacity:1;stop-color:#dec028"
         offset="0.532995"
         id="stop2436" />
      <stop
         style="stop-opacity:1;stop-color:#a37e29"
         offset="1"
         id="stop2438" />
    </linearGradient>
    <clipPath
       clipPathUnits="userSpaceOnUse"
       id="clipPath2410">
      <path
         inkscape:connector-curvature="0"
         d="m 0,932 1190.551,0 0,-932 L 0,0 0,932 z"
         id="path2412" />
    </clipPath>
    <linearGradient
       x1="0"
       y1="0"
       x2="1"
       y2="0"
       gradientUnits="userSpaceOnUse"
       gradientTransform="matrix(13.500284,13.500284,13.500284,-13.500284,249.69385,882.11084)"
       spreadMethod="pad"
       id="linearGradient2398">
      <stop
         style="stop-opacity:1;stop-color:#ffffff"
         offset="0"
         id="stop2400" />
      <stop
         style="stop-opacity:1;stop-color:#f0c629"
         offset="1"
         id="stop2402" />
    </linearGradient>
    <clipPath
       clipPathUnits="userSpaceOnUse"
       id="clipPath2374">
      <path
         inkscape:connector-curvature="0"
         d="m 0,932 1190.551,0 0,-932 L 0,0 0,932 z"
         id="path2376" />
    </clipPath>
    <linearGradient
       x1="0"
       y1="0"
       x2="1"
       y2="0"
       gradientUnits="userSpaceOnUse"
       gradientTransform="matrix(-4.3e-6,99,99,4.3e-6,240.69336,810.11133)"
       spreadMethod="pad"
       id="linearGradient2362">
      <stop
         style="stop-opacity:1;stop-color:#f0c629"
         offset="0"
         id="stop2364" />
      <stop
         style="stop-opacity:1;stop-color:#ffffff"
         offset="1"
         id="stop2366" />
    </linearGradient>
    <linearGradient
       x1="0"
       y1="0"
       x2="1"
       y2="0"
       gradientUnits="userSpaceOnUse"
       gradientTransform="matrix(13.499939,13.499939,13.499939,-13.499939,429.64111,882.11084)"
       spreadMethod="pad"
       id="linearGradient5936">
      <stop
         style="stop-opacity:1;stop-color:#ffffff"
         offset="0"
         id="stop5938" />
      <stop
         style="stop-opacity:1;stop-color:#f0c629"
         offset="1"
         id="stop5940" />
    </linearGradient>
    <clipPath
       clipPathUnits="userSpaceOnUse"
       id="clipPath5668">
      <path
         inkscape:connector-curvature="0"
         d="m 0,932 1190.551,0 0,-932 L 0,0 0,932 z"
         id="path5670" />
    </clipPath>
    <clipPath
       clipPathUnits="userSpaceOnUse"
       id="clipPath5676">
      <path
         inkscape:connector-curvature="0"
         d="m 397.613,891.111 45,0 0,-45 -45,0 0,45 z"
         id="path5678" />
    </clipPath>
    <linearGradient
       x1="0"
       y1="0"
       x2="1"
       y2="0"
       gradientUnits="userSpaceOnUse"
       gradientTransform="matrix(-2e-6,45,45,2e-6,420.11328,846.11133)"
       spreadMethod="pad"
       id="linearGradient5684">
      <stop
         style="stop-opacity:1;stop-color:#a78229"
         offset="0"
         id="stop5686" />
      <stop
         style="stop-opacity:1;stop-color:#dec028"
         offset="0.532995"
         id="stop5688" />
      <stop
         style="stop-opacity:1;stop-color:#dec028"
         offset="0.532995"
         id="stop5690" />
      <stop
         style="stop-opacity:1;stop-color:#a37e29"
         offset="1"
         id="stop5692" />
    </linearGradient>
    <clipPath
       clipPathUnits="userSpaceOnUse"
       id="clipPath5712">
      <path
         inkscape:connector-curvature="0"
         d="m 417.301,871.424 5.625,0 0,-5.625 -5.625,0 0,5.625 z"
         id="path5714" />
    </clipPath>
    <clipPath
       clipPathUnits="userSpaceOnUse"
       id="clipPath5728">
      <path
         inkscape:connector-curvature="0"
         d="m 411.676,877.049 16.875,0 0,-16.875 -16.875,0 0,16.875 z"
         id="path5730" />
    </clipPath>
    <clipPath
       clipPathUnits="userSpaceOnUse"
       id="clipPath5652">
      <path
         inkscape:connector-curvature="0"
         d="m 0,932 1190.551,0 0,-932 L 0,0 0,932 z"
         id="path5654" />
    </clipPath>
    <linearGradient
       x1="0"
       y1="0"
       x2="1"
       y2="0"
       gradientUnits="userSpaceOnUse"
       gradientTransform="matrix(-4.3e-6,99,99,4.3e-6,420.11328,810.11133)"
       spreadMethod="pad"
       id="linearGradient5640">
      <stop
         style="stop-opacity:1;stop-color:#f0c629"
         offset="0"
         id="stop5642" />
      <stop
         style="stop-opacity:1;stop-color:#ffffff"
         offset="1"
         id="stop5644" />
    </linearGradient>
    <clipPath
       clipPathUnits="userSpaceOnUse"
       id="clipPath1894">
      <path
         inkscape:connector-curvature="0"
         d="m 0,932 1190.551,0 0,-932 L 0,0 0,932 z"
         id="path1896" />
    </clipPath>
    <linearGradient
       x1="0"
       y1="0"
       x2="1"
       y2="0"
       gradientUnits="userSpaceOnUse"
       gradientTransform="matrix(13.500284,13.500284,13.500284,-13.500284,612,747.11133)"
       spreadMethod="pad"
       id="linearGradient1882">
      <stop
         style="stop-opacity:1;stop-color:#ffffff"
         offset="0"
         id="stop1884" />
      <stop
         style="stop-opacity:1;stop-color:#96a8b3"
         offset="1"
         id="stop1886" />
    </linearGradient>
    <linearGradient
       x1="0"
       y1="0"
       x2="1"
       y2="0"
       gradientUnits="userSpaceOnUse"
       gradientTransform="matrix(-1.7e-6,39.448242,39.448242,1.7e-6,617.78223,713.8877)"
       spreadMethod="pad"
       id="linearGradient916">
      <stop
         style="stop-opacity:1;stop-color:#8a9ea9"
         offset="0"
         id="stop918" />
      <stop
         style="stop-opacity:1;stop-color:#4c6977"
         offset="0.989848"
         id="stop920" />
      <stop
         style="stop-opacity:1;stop-color:#4c6977"
         offset="1"
         id="stop922" />
    </linearGradient>
    <linearGradient
       x1="0"
       y1="0"
       x2="1"
       y2="0"
       gradientUnits="userSpaceOnUse"
       gradientTransform="matrix(-1.7e-6,39.448242,39.448242,1.7e-6,587.52637,713.8877)"
       spreadMethod="pad"
       id="linearGradient894">
      <stop
         style="stop-opacity:1;stop-color:#8a9ea9"
         offset="0"
         id="stop896" />
      <stop
         style="stop-opacity:1;stop-color:#4c6977"
         offset="0.989848"
         id="stop898" />
      <stop
         style="stop-opacity:1;stop-color:#4c6977"
         offset="1"
         id="stop900" />
    </linearGradient>
    <linearGradient
       x1="0"
       y1="0"
       x2="1"
       y2="0"
       gradientUnits="userSpaceOnUse"
       gradientTransform="matrix(-4.3e-6,99,99,4.3e-6,603,675.11133)"
       spreadMethod="pad"
       id="linearGradient866">
      <stop
         style="stop-opacity:1;stop-color:#c9d5dc"
         offset="0"
         id="stop868" />
      <stop
         style="stop-opacity:1;stop-color:#ffffff"
         offset="1"
         id="stop870" />
    </linearGradient>
    <linearGradient
       x1="0"
       y1="0"
       x2="1"
       y2="0"
       gradientUnits="userSpaceOnUse"
       gradientTransform="matrix(-1.5e-6,34.740723,34.740723,1.5e-6,1053.0332,811.06787)"
       spreadMethod="pad"
       id="linearGradient5330">
      <stop
         style="stop-opacity:1;stop-color:#f04d44"
         offset="0"
         id="stop5332" />
      <stop
         style="stop-opacity:1;stop-color:#c1343e"
         offset="1"
         id="stop5334" />
    </linearGradient>
    <clipPath
       clipPathUnits="userSpaceOnUse"
       id="clipPath2814">
      <path
         inkscape:connector-curvature="0"
         d="m 0,932 1190.551,0 0,-932 L 0,0 0,932 z"
         id="path2816" />
    </clipPath>
    <linearGradient
       x1="0"
       y1="0"
       x2="1"
       y2="0"
       gradientUnits="userSpaceOnUse"
       gradientTransform="matrix(13.499939,13.499939,13.499939,-13.499939,1062,882.11133)"
       spreadMethod="pad"
       id="linearGradient2802">
      <stop
         style="stop-opacity:1;stop-color:#ffffff"
         offset="0"
         id="stop2804" />
      <stop
         style="stop-opacity:1;stop-color:#96a8b3"
         offset="1"
         id="stop2806" />
    </linearGradient>
    <clipPath
       clipPathUnits="userSpaceOnUse"
       id="clipPath5668-1">
      <path
         inkscape:connector-curvature="0"
         d="m 0,932 1190.551,0 0,-932 L 0,0 0,932 z"
         id="path5670-6" />
    </clipPath>
    <clipPath
       clipPathUnits="userSpaceOnUse"
       id="clipPath5676-8">
      <path
         inkscape:connector-curvature="0"
         d="m 397.613,891.111 45,0 0,-45 -45,0 0,45 z"
         id="path5678-4" />
    </clipPath>
    <linearGradient
       x1="0"
       y1="0"
       x2="1"
       y2="0"
       gradientUnits="userSpaceOnUse"
       gradientTransform="matrix(-2e-6,45,45,2e-6,420.11328,846.11133)"
       spreadMethod="pad"
       id="linearGradient5684-6">
      <stop
         style="stop-opacity:1;stop-color:#a78229"
         offset="0"
         id="stop5686-2" />
      <stop
         style="stop-opacity:1;stop-color:#dec028"
         offset="0.532995"
         id="stop5688-7" />
      <stop
         style="stop-opacity:1;stop-color:#dec028"
         offset="0.532995"
         id="stop5690-2" />
      <stop
         style="stop-opacity:1;stop-color:#a37e29"
         offset="1"
         id="stop5692-8" />
    </linearGradient>
    <clipPath
       clipPathUnits="userSpaceOnUse"
       id="clipPath5712-3">
      <path
         inkscape:connector-curvature="0"
         d="m 417.301,871.424 5.625,0 0,-5.625 -5.625,0 0,5.625 z"
         id="path5714-0" />
    </clipPath>
    <clipPath
       clipPathUnits="userSpaceOnUse"
       id="clipPath5728-9">
      <path
         inkscape:connector-curvature="0"
         d="m 411.676,877.049 16.875,0 0,-16.875 -16.875,0 0,16.875 z"
         id="path5730-6" />
    </clipPath>
    <clipPath
       clipPathUnits="userSpaceOnUse"
       id="clipPath2782">
      <path
         inkscape:connector-curvature="0"
         d="m 0,932 1190.551,0 0,-932 L 0,0 0,932 z"
         id="path2784" />
    </clipPath>
    <linearGradient
       x1="0"
       y1="0"
       x2="1"
       y2="0"
       gradientUnits="userSpaceOnUse"
       gradientTransform="matrix(-4.3e-6,99,99,4.3e-6,1053,810.11133)"
       spreadMethod="pad"
       id="linearGradient2770">
      <stop
         style="stop-opacity:1;stop-color:#c9d5dc"
         offset="0"
         id="stop2772" />
      <stop
         style="stop-opacity:1;stop-color:#ffffff"
         offset="1"
         id="stop2774" />
    </linearGradient>
    <linearGradient
       x1="0"
       y1="0"
       x2="1"
       y2="0"
       gradientUnits="userSpaceOnUse"
       gradientTransform="matrix(13.500284,13.500284,13.500284,-13.500284,162.00098,492.11035)"
       spreadMethod="pad"
       id="linearGradient820">
      <stop
         style="stop-opacity:1;stop-color:#ffffff"
         offset="0"
         id="stop822" />
      <stop
         style="stop-opacity:1;stop-color:#96a8b3"
         offset="1"
         id="stop824" />
    </linearGradient>
    <linearGradient
       x1="0"
       y1="0"
       x2="1"
       y2="0"
       gradientUnits="userSpaceOnUse"
       gradientTransform="matrix(-4.3e-6,98.999512,98.999512,4.3e-6,153,420.11133)"
       spreadMethod="pad"
       id="linearGradient792">
      <stop
         style="stop-opacity:1;stop-color:#c9d5dc"
         offset="0"
         id="stop794" />
      <stop
         style="stop-opacity:1;stop-color:#ffffff"
         offset="1"
         id="stop796" />
    </linearGradient>
    <clipPath
       clipPathUnits="userSpaceOnUse"
       id="clipPath2650">
      <path
         inkscape:connector-curvature="0"
         d="m 0,932 1190.551,0 0,-932 L 0,0 0,932 z"
         id="path2652" />
    </clipPath>
    <linearGradient
       x1="0"
       y1="0"
       x2="1"
       y2="0"
       gradientUnits="userSpaceOnUse"
       gradientTransform="matrix(13.499939,13.499939,13.499939,-13.499939,1152.001,882.11035)"
       spreadMethod="pad"
       id="linearGradient2638">
      <stop
         style="stop-opacity:1;stop-color:#ffffff"
         offset="0"
         id="stop2640" />
      <stop
         style="stop-opacity:1;stop-color:#96a8b3"
         offset="1"
         id="stop2642" />
    </linearGradient>
    <linearGradient
       x1="0"
       y1="0"
       x2="1"
       y2="0"
       gradientUnits="userSpaceOnUse"
       gradientTransform="matrix(-2.2e-6,51.141113,51.141113,2.2e-6,1141.9365,845.31055)"
       spreadMethod="pad"
       id="linearGradient978">
      <stop
         style="stop-opacity:1;stop-color:#afcddd"
         offset="0"
         id="stop980" />
      <stop
         style="stop-opacity:1;stop-color:#567280"
         offset="1"
         id="stop982" />
    </linearGradient>
    <linearGradient
       x1="0"
       y1="0"
       x2="1"
       y2="0"
       gradientUnits="userSpaceOnUse"
       gradientTransform="matrix(-4.3e-6,99,99,4.3e-6,1143,810.11133)"
       spreadMethod="pad"
       id="linearGradient660">
      <stop
         style="stop-opacity:1;stop-color:#c9d5dc"
         offset="0"
         id="stop662" />
      <stop
         style="stop-opacity:1;stop-color:#ffffff"
         offset="1"
         id="stop664" />
    </linearGradient>
  </defs>
  <sodipodi:namedview
     id="base"
     pagecolor="#ffffff"
     bordercolor="#666666"
     borderopacity="1.0"
     inkscape:pageopacity="0.0"
     inkscape:pageshadow="2"
     inkscape:zoom="1.979899"
     inkscape:cx="39.608583"
     inkscape:cy="121.83329"
     inkscape:document-units="px"
     inkscape:current-layer="layer1"
     showgrid="false"
     fit-margin-top="0"
     fit-margin-left="0"
     fit-margin-right="0"
     fit-margin-bottom="0"
     inkscape:window-width="1920"
     inkscape:window-height="1031"
     inkscape:window-x="1280"
     inkscape:window-y="0"
     inkscape:window-maximized="1" />
  <metadata
     id="metadata9188">
    <rdf:RDF>
      <cc:Work
         rdf:about="">
        <dc:format>image/svg+xml</dc:format>
        <dc:type
           rdf:resource="http://purl.org/dc/dcmitype/StillImage" />
        <dc:title></dc:title>
      </cc:Work>
    </rdf:RDF>
  </metadata>
  <g
     inkscape:label="Layer 1"
     inkscape:groupmode="layer"
     id="layer1"
     transform="translate(-541.46275,-869.68017)">
    <g
       transform="matrix(1.25,0,0,-1.25,-841.03725,2007.3193)"
       id="g648">
      <g
         id="g650">
        <g
           id="g656">
          <g
             id="g658">
            <path
               inkscape:connector-curvature="0"
               d="m 1152,909.111 27,-27 0,-72 -72,0 0,99 45,0 z"
               style="fill:url(#linearGradient660);stroke:none"
               id="path666" />
          </g>
        </g>
      </g>
    </g>
    <g
       id="g668"
       transform="matrix(1.25,0,0,-1.25,598.96275,870.93017)">
      <path
         inkscape:connector-curvature="0"
         d="m 0,0 27,-27 0,-72 -72,0 0,99 45,0 z"
         style="fill:none;stroke:#7795a4;stroke-width:2;stroke-linecap:butt;stroke-linejoin:miter;stroke-miterlimit:4;stroke-opacity:1;stroke-dasharray:none"
         id="path670" />
    </g>
    <text
       style="font-size:15px"
       y="985.69031"
       x="552.97797"
       id="text672">
      <tspan
         style="font-size:35px;font-variant:normal;font-weight:bold;font-stretch:normal;writing-mode:lr-tb;fill:#567280;fill-opacity:1;fill-rule:nonzero;stroke:none;font-family:Arial;-inkscape-font-specification:Arial-BoldMT"
         sodipodi:role="line"
         id="tspan674"
         x="552.97797"
         y="985.69031">XXX</tspan>
    </text>
    <g
       transform="matrix(1.25,0,0,-1.25,-841.03725,2007.3193)"
       id="g966">
      <g
         id="g968">
        <g
           id="g974">
          <g
             id="g976">
            <path
               inkscape:connector-curvature="0"
               d="m 1142.336,891.238 c -0.959,0.018 -1.93,-0.028 -2.908,-0.15 l 0,0 c -0.981,-0.121 -1.933,-0.315 -2.858,-0.567 l 0,0 -2.67,4.704 -8.746,-4.963 2.67,-4.702 c -1.402,-1.351 -2.605,-2.897 -3.572,-4.585 l 0,0 -5.211,1.436 -2.674,-9.693 5.213,-1.438 c -0.017,-0.958 0.029,-1.93 0.15,-2.909 l 0,0 c 0.122,-0.98 0.315,-1.93 0.566,-2.857 l 0,0 -4.702,-2.67 4.963,-8.744 4.701,2.668 c 1.349,-1.402 2.895,-2.606 4.585,-3.572 l 0,0 -1.437,-5.212 9.693,-2.673 1.439,5.213 c 0.958,-0.019 1.929,0.027 2.909,0.15 l 0,0 c 0.978,0.121 1.932,0.315 2.857,0.566 l 0,0 2.669,-4.703 8.746,4.964 -2.669,4.702 c 1.402,1.349 2.606,2.895 3.572,4.585 l 0,0 5.212,-1.438 2.672,9.694 -5.212,1.439 c 0.016,0.958 -0.029,1.928 -0.15,2.908 l 0,0 c -0.123,0.979 -0.315,1.932 -0.568,2.857 l 0,0 4.704,2.669 -4.962,8.745 -4.703,-2.668 c -1.35,1.402 -2.894,2.607 -4.585,3.572 l 0,0 1.438,5.212 -9.694,2.673 -1.438,-5.213 z m -8.632,-21.38 c -0.564,4.547 2.663,8.69 7.21,9.256 l 0,0 c 4.547,0.564 8.69,-2.664 9.256,-7.211 l 0,0 c 0.565,-4.546 -2.665,-8.691 -7.211,-9.255 l 0,0 c -0.347,-0.043 -0.692,-0.064 -1.033,-0.064 l 0,0 c -4.126,0 -7.7,3.075 -8.222,7.274"
               style="fill:url(#linearGradient978);stroke:none"
               id="path984" />
          </g>
        </g>
      </g>
    </g>
    <g
       transform="matrix(1.25,0,0,-1.25,-841.03725,2007.3193)"
       id="g2626">
      <g
         id="g2628">
        <g
           id="g2634">
          <g
             id="g2636">
            <path
               inkscape:connector-curvature="0"
               d="m 1152,882.112 27,0 -27,27 0,-27 z"
               style="fill:url(#linearGradient2638);stroke:none"
               id="path2644" />
          </g>
        </g>
      </g>
    </g>
    <g
       transform="matrix(1.25,0,0,-1.25,-841.03725,2007.3193)"
       id="g2646">
      <g
         id="g2648"
         clip-path="url(#clipPath2650)">
        <g
           id="g2654"
           transform="translate(1152,909.1113)">
          <path
             inkscape:connector-curvature="0"
             d="M 0,0 27,-27 0,-27 0,0 z"
             style="fill:none;stroke:#7795a4;stroke-width:2;stroke-linecap:butt;stroke-linejoin:bevel;stroke-miterlimit:4;stroke-opacity:1;stroke-dasharray:none"
             id="path2656" />
        </g>
      </g>
    </g>
  </g>
</svg>
