<?xml version="1.0" encoding="UTF-8" standalone="no"?>
<!-- Created with Inkscape (http://www.inkscape.org/) -->

<svg
   xmlns:dc="http://purl.org/dc/elements/1.1/"
   xmlns:cc="http://creativecommons.org/ns#"
   xmlns:rdf="http://www.w3.org/1999/02/22-rdf-syntax-ns#"
   xmlns:svg="http://www.w3.org/2000/svg"
   xmlns="http://www.w3.org/2000/svg"
   xmlns:sodipodi="http://sodipodi.sourceforge.net/DTD/sodipodi-0.dtd"
   xmlns:inkscape="http://www.inkscape.org/namespaces/inkscape"
   width="92.5"
   height="126.25"
   id="svg9183"
   version="1.1"
   inkscape:version="0.48.3.1 r9886"
   sodipodi:docname="DATABASE.svg">
  <defs
     id="defs9185">
    <clipPath
       clipPathUnits="userSpaceOnUse"
       id="clipPath2446">
      <path
         inkscape:connector-curvature="0"
         d="m 0,932 1190.551,0 0,-932 L 0,0 0,932 z"
         id="path2448" />
    </clipPath>
    <linearGradient
       x1="0"
       y1="0"
       x2="1"
       y2="0"
       gradientUnits="userSpaceOnUse"
       gradientTransform="matrix(-2.5e-6,57.874023,57.874023,2.5e-6,238.38379,848.2373)"
       spreadMethod="pad"
       id="linearGradient2430">
      <stop
         style="stop-opacity:1;stop-color:#a78229"
         offset="0"
         id="stop2432" />
      <stop
         style="stop-opacity:1;stop-color:#dec028"
         offset="0.532995"
         id="stop2434" />
      <stop
         style="stop-opacity:1;stop-color:#dec028"
         offset="0.532995"
         id="stop2436" />
      <stop
         style="stop-opacity:1;stop-color:#a37e29"
         offset="1"
         id="stop2438" />
    </linearGradient>
    <clipPath
       clipPathUnits="userSpaceOnUse"
       id="clipPath2410">
      <path
         inkscape:connector-curvature="0"
         d="m 0,932 1190.551,0 0,-932 L 0,0 0,932 z"
         id="path2412" />
    </clipPath>
    <linearGradient
       x1="0"
       y1="0"
       x2="1"
       y2="0"
       gradientUnits="userSpaceOnUse"
       gradientTransform="matrix(13.500284,13.500284,13.500284,-13.500284,249.69385,882.11084)"
       spreadMethod="pad"
       id="linearGradient2398">
      <stop
         style="stop-opacity:1;stop-color:#ffffff"
         offset="0"
         id="stop2400" />
      <stop
         style="stop-opacity:1;stop-color:#f0c629"
         offset="1"
         id="stop2402" />
    </linearGradient>
    <clipPath
       clipPathUnits="userSpaceOnUse"
       id="clipPath2374">
      <path
         inkscape:connector-curvature="0"
         d="m 0,932 1190.551,0 0,-932 L 0,0 0,932 z"
         id="path2376" />
    </clipPath>
    <linearGradient
       x1="0"
       y1="0"
       x2="1"
       y2="0"
       gradientUnits="userSpaceOnUse"
       gradientTransform="matrix(-4.3e-6,99,99,4.3e-6,240.69336,810.11133)"
       spreadMethod="pad"
       id="linearGradient2362">
      <stop
         style="stop-opacity:1;stop-color:#f0c629"
         offset="0"
         id="stop2364" />
      <stop
         style="stop-opacity:1;stop-color:#ffffff"
         offset="1"
         id="stop2366" />
    </linearGradient>
    <linearGradient
       x1="0"
       y1="0"
       x2="1"
       y2="0"
       gradientUnits="userSpaceOnUse"
       gradientTransform="matrix(13.499939,13.499939,13.499939,-13.499939,429.64111,882.11084)"
       spreadMethod="pad"
       id="linearGradient5936">
      <stop
         style="stop-opacity:1;stop-color:#ffffff"
         offset="0"
         id="stop5938" />
      <stop
         style="stop-opacity:1;stop-color:#f0c629"
         offset="1"
         id="stop5940" />
    </linearGradient>
    <clipPath
       clipPathUnits="userSpaceOnUse"
       id="clipPath5668">
      <path
         inkscape:connector-curvature="0"
         d="m 0,932 1190.551,0 0,-932 L 0,0 0,932 z"
         id="path5670" />
    </clipPath>
    <clipPath
       clipPathUnits="userSpaceOnUse"
       id="clipPath5676">
      <path
         inkscape:connector-curvature="0"
         d="m 397.613,891.111 45,0 0,-45 -45,0 0,45 z"
         id="path5678" />
    </clipPath>
    <linearGradient
       x1="0"
       y1="0"
       x2="1"
       y2="0"
       gradientUnits="userSpaceOnUse"
       gradientTransform="matrix(-2e-6,45,45,2e-6,420.11328,846.11133)"
       spreadMethod="pad"
       id="linearGradient5684">
      <stop
         style="stop-opacity:1;stop-color:#a78229"
         offset="0"
         id="stop5686" />
      <stop
         style="stop-opacity:1;stop-color:#dec028"
         offset="0.532995"
         id="stop5688" />
      <stop
         style="stop-opacity:1;stop-color:#dec028"
         offset="0.532995"
         id="stop5690" />
      <stop
         style="stop-opacity:1;stop-color:#a37e29"
         offset="1"
         id="stop5692" />
    </linearGradient>
    <clipPath
       clipPathUnits="userSpaceOnUse"
       id="clipPath5712">
      <path
         inkscape:connector-curvature="0"
         d="m 417.301,871.424 5.625,0 0,-5.625 -5.625,0 0,5.625 z"
         id="path5714" />
    </clipPath>
    <clipPath
       clipPathUnits="userSpaceOnUse"
       id="clipPath5728">
      <path
         inkscape:connector-curvature="0"
         d="m 411.676,877.049 16.875,0 0,-16.875 -16.875,0 0,16.875 z"
         id="path5730" />
    </clipPath>
    <clipPath
       clipPathUnits="userSpaceOnUse"
       id="clipPath5652">
      <path
         inkscape:connector-curvature="0"
         d="m 0,932 1190.551,0 0,-932 L 0,0 0,932 z"
         id="path5654" />
    </clipPath>
    <linearGradient
       x1="0"
       y1="0"
       x2="1"
       y2="0"
       gradientUnits="userSpaceOnUse"
       gradientTransform="matrix(-4.3e-6,99,99,4.3e-6,420.11328,810.11133)"
       spreadMethod="pad"
       id="linearGradient5640">
      <stop
         style="stop-opacity:1;stop-color:#f0c629"
         offset="0"
         id="stop5642" />
      <stop
         style="stop-opacity:1;stop-color:#ffffff"
         offset="1"
         id="stop5644" />
    </linearGradient>
    <clipPath
       clipPathUnits="userSpaceOnUse"
       id="clipPath1894">
      <path
         inkscape:connector-curvature="0"
         d="m 0,932 1190.551,0 0,-932 L 0,0 0,932 z"
         id="path1896" />
    </clipPath>
    <linearGradient
       x1="0"
       y1="0"
       x2="1"
       y2="0"
       gradientUnits="userSpaceOnUse"
       gradientTransform="matrix(13.500284,13.500284,13.500284,-13.500284,612,747.11133)"
       spreadMethod="pad"
       id="linearGradient1882">
      <stop
         style="stop-opacity:1;stop-color:#ffffff"
         offset="0"
         id="stop1884" />
      <stop
         style="stop-opacity:1;stop-color:#96a8b3"
         offset="1"
         id="stop1886" />
    </linearGradient>
    <linearGradient
       x1="0"
       y1="0"
       x2="1"
       y2="0"
       gradientUnits="userSpaceOnUse"
       gradientTransform="matrix(-1.7e-6,39.448242,39.448242,1.7e-6,617.78223,713.8877)"
       spreadMethod="pad"
       id="linearGradient916">
      <stop
         style="stop-opacity:1;stop-color:#8a9ea9"
         offset="0"
         id="stop918" />
      <stop
         style="stop-opacity:1;stop-color:#4c6977"
         offset="0.989848"
         id="stop920" />
      <stop
         style="stop-opacity:1;stop-color:#4c6977"
         offset="1"
         id="stop922" />
    </linearGradient>
    <linearGradient
       x1="0"
       y1="0"
       x2="1"
       y2="0"
       gradientUnits="userSpaceOnUse"
       gradientTransform="matrix(-1.7e-6,39.448242,39.448242,1.7e-6,587.52637,713.8877)"
       spreadMethod="pad"
       id="linearGradient894">
      <stop
         style="stop-opacity:1;stop-color:#8a9ea9"
         offset="0"
         id="stop896" />
      <stop
         style="stop-opacity:1;stop-color:#4c6977"
         offset="0.989848"
         id="stop898" />
      <stop
         style="stop-opacity:1;stop-color:#4c6977"
         offset="1"
         id="stop900" />
    </linearGradient>
    <linearGradient
       x1="0"
       y1="0"
       x2="1"
       y2="0"
       gradientUnits="userSpaceOnUse"
       gradientTransform="matrix(-4.3e-6,99,99,4.3e-6,603,675.11133)"
       spreadMethod="pad"
       id="linearGradient866">
      <stop
         style="stop-opacity:1;stop-color:#c9d5dc"
         offset="0"
         id="stop868" />
      <stop
         style="stop-opacity:1;stop-color:#ffffff"
         offset="1"
         id="stop870" />
    </linearGradient>
    <linearGradient
       x1="0"
       y1="0"
       x2="1"
       y2="0"
       gradientUnits="userSpaceOnUse"
       gradientTransform="matrix(-1.5e-6,34.740723,34.740723,1.5e-6,1053.0332,811.06787)"
       spreadMethod="pad"
       id="linearGradient5330">
      <stop
         style="stop-opacity:1;stop-color:#f04d44"
         offset="0"
         id="stop5332" />
      <stop
         style="stop-opacity:1;stop-color:#c1343e"
         offset="1"
         id="stop5334" />
    </linearGradient>
    <clipPath
       clipPathUnits="userSpaceOnUse"
       id="clipPath2814">
      <path
         inkscape:connector-curvature="0"
         d="m 0,932 1190.551,0 0,-932 L 0,0 0,932 z"
         id="path2816" />
    </clipPath>
    <linearGradient
       x1="0"
       y1="0"
       x2="1"
       y2="0"
       gradientUnits="userSpaceOnUse"
       gradientTransform="matrix(13.499939,13.499939,13.499939,-13.499939,1062,882.11133)"
       spreadMethod="pad"
       id="linearGradient2802">
      <stop
         style="stop-opacity:1;stop-color:#ffffff"
         offset="0"
         id="stop2804" />
      <stop
         style="stop-opacity:1;stop-color:#96a8b3"
         offset="1"
         id="stop2806" />
    </linearGradient>
    <clipPath
       clipPathUnits="userSpaceOnUse"
       id="clipPath5668-1">
      <path
         inkscape:connector-curvature="0"
         d="m 0,932 1190.551,0 0,-932 L 0,0 0,932 z"
         id="path5670-6" />
    </clipPath>
    <clipPath
       clipPathUnits="userSpaceOnUse"
       id="clipPath5676-8">
      <path
         inkscape:connector-curvature="0"
         d="m 397.613,891.111 45,0 0,-45 -45,0 0,45 z"
         id="path5678-4" />
    </clipPath>
    <linearGradient
       x1="0"
       y1="0"
       x2="1"
       y2="0"
       gradientUnits="userSpaceOnUse"
       gradientTransform="matrix(-2e-6,45,45,2e-6,420.11328,846.11133)"
       spreadMethod="pad"
       id="linearGradient5684-6">
      <stop
         style="stop-opacity:1;stop-color:#a78229"
         offset="0"
         id="stop5686-2" />
      <stop
         style="stop-opacity:1;stop-color:#dec028"
         offset="0.532995"
         id="stop5688-7" />
      <stop
         style="stop-opacity:1;stop-color:#dec028"
         offset="0.532995"
         id="stop5690-2" />
      <stop
         style="stop-opacity:1;stop-color:#a37e29"
         offset="1"
         id="stop5692-8" />
    </linearGradient>
    <clipPath
       clipPathUnits="userSpaceOnUse"
       id="clipPath5712-3">
      <path
         inkscape:connector-curvature="0"
         d="m 417.301,871.424 5.625,0 0,-5.625 -5.625,0 0,5.625 z"
         id="path5714-0" />
    </clipPath>
    <clipPath
       clipPathUnits="userSpaceOnUse"
       id="clipPath5728-9">
      <path
         inkscape:connector-curvature="0"
         d="m 411.676,877.049 16.875,0 0,-16.875 -16.875,0 0,16.875 z"
         id="path5730-6" />
    </clipPath>
    <clipPath
       clipPathUnits="userSpaceOnUse"
       id="clipPath2782">
      <path
         inkscape:connector-curvature="0"
         d="m 0,932 1190.551,0 0,-932 L 0,0 0,932 z"
         id="path2784" />
    </clipPath>
    <linearGradient
       x1="0"
       y1="0"
       x2="1"
       y2="0"
       gradientUnits="userSpaceOnUse"
       gradientTransform="matrix(-4.3e-6,99,99,4.3e-6,1053,810.11133)"
       spreadMethod="pad"
       id="linearGradient2770">
      <stop
         style="stop-opacity:1;stop-color:#c9d5dc"
         offset="0"
         id="stop2772" />
      <stop
         style="stop-opacity:1;stop-color:#ffffff"
         offset="1"
         id="stop2774" />
    </linearGradient>
    <linearGradient
       x1="0"
       y1="0"
       x2="1"
       y2="0"
       gradientUnits="userSpaceOnUse"
       gradientTransform="matrix(13.500284,13.500284,13.500284,-13.500284,162.00098,492.11035)"
       spreadMethod="pad"
       id="linearGradient820">
      <stop
         style="stop-opacity:1;stop-color:#ffffff"
         offset="0"
         id="stop822" />
      <stop
         style="stop-opacity:1;stop-color:#96a8b3"
         offset="1"
         id="stop824" />
    </linearGradient>
    <linearGradient
       x1="0"
       y1="0"
       x2="1"
       y2="0"
       gradientUnits="userSpaceOnUse"
       gradientTransform="matrix(-4.3e-6,98.999512,98.999512,4.3e-6,153,420.11133)"
       spreadMethod="pad"
       id="linearGradient792">
      <stop
         style="stop-opacity:1;stop-color:#c9d5dc"
         offset="0"
         id="stop794" />
      <stop
         style="stop-opacity:1;stop-color:#ffffff"
         offset="1"
         id="stop796" />
    </linearGradient>
    <clipPath
       clipPathUnits="userSpaceOnUse"
       id="clipPath2650">
      <path
         inkscape:connector-curvature="0"
         d="m 0,932 1190.551,0 0,-932 L 0,0 0,932 z"
         id="path2652" />
    </clipPath>
    <linearGradient
       x1="0"
       y1="0"
       x2="1"
       y2="0"
       gradientUnits="userSpaceOnUse"
       gradientTransform="matrix(13.499939,13.499939,13.499939,-13.499939,1152.001,882.11035)"
       spreadMethod="pad"
       id="linearGradient2638">
      <stop
         style="stop-opacity:1;stop-color:#ffffff"
         offset="0"
         id="stop2640" />
      <stop
         style="stop-opacity:1;stop-color:#96a8b3"
         offset="1"
         id="stop2642" />
    </linearGradient>
    <linearGradient
       x1="0"
       y1="0"
       x2="1"
       y2="0"
       gradientUnits="userSpaceOnUse"
       gradientTransform="matrix(-2.2e-6,51.141113,51.141113,2.2e-6,1141.9365,845.31055)"
       spreadMethod="pad"
       id="linearGradient978">
      <stop
         style="stop-opacity:1;stop-color:#afcddd"
         offset="0"
         id="stop980" />
      <stop
         style="stop-opacity:1;stop-color:#567280"
         offset="1"
         id="stop982" />
    </linearGradient>
    <linearGradient
       x1="0"
       y1="0"
       x2="1"
       y2="0"
       gradientUnits="userSpaceOnUse"
       gradientTransform="matrix(-4.3e-6,99,99,4.3e-6,1143,810.11133)"
       spreadMethod="pad"
       id="linearGradient660">
      <stop
         style="stop-opacity:1;stop-color:#c9d5dc"
         offset="0"
         id="stop662" />
      <stop
         style="stop-opacity:1;stop-color:#ffffff"
         offset="1"
         id="stop664" />
    </linearGradient>
    <linearGradient
       x1="0"
       y1="0"
       x2="1"
       y2="0"
       gradientUnits="userSpaceOnUse"
       gradientTransform="matrix(13.500284,13.500284,13.500284,-13.500284,342.00049,748.10986)"
       spreadMethod="pad"
       id="linearGradient5960">
      <stop
         style="stop-opacity:1;stop-color:#ffffff"
         offset="0"
         id="stop5962" />
      <stop
         style="stop-opacity:1;stop-color:#96a8b3"
         offset="1"
         id="stop5964" />
    </linearGradient>
    <linearGradient
       x1="0"
       y1="0"
       x2="1"
       y2="0"
       gradientUnits="userSpaceOnUse"
       gradientTransform="matrix(36,0,0,-36,315,750.48633)"
       spreadMethod="pad"
       id="linearGradient5888">
      <stop
         style="stop-opacity:1;stop-color:#cedfe8"
         offset="0"
         id="stop5890" />
      <stop
         style="stop-opacity:1;stop-color:#7193a4"
         offset="1"
         id="stop5892" />
    </linearGradient>
    <linearGradient
       x1="0"
       y1="0"
       x2="1"
       y2="0"
       gradientUnits="userSpaceOnUse"
       gradientTransform="matrix(14.066188,14.066188,14.066188,-14.066188,325.9668,751.89062)"
       spreadMethod="pad"
       id="linearGradient5868">
      <stop
         style="stop-opacity:1;stop-color:#cedfe8"
         offset="0"
         id="stop5870" />
      <stop
         style="stop-opacity:1;stop-color:#7193a4"
         offset="1"
         id="stop5872" />
    </linearGradient>
    <clipPath
       clipPathUnits="userSpaceOnUse"
       id="clipPath5848">
      <path
         inkscape:connector-curvature="0"
         d="m 0,932 1190.551,0 0,-932 L 0,0 0,932 z"
         id="path5850" />
    </clipPath>
    <linearGradient
       x1="0"
       y1="0"
       x2="1"
       y2="0"
       gradientUnits="userSpaceOnUse"
       gradientTransform="matrix(36,0,0,-36,315,734.73633)"
       spreadMethod="pad"
       id="linearGradient5836">
      <stop
         style="stop-opacity:1;stop-color:#cedfe8"
         offset="0"
         id="stop5838" />
      <stop
         style="stop-opacity:1;stop-color:#587f91"
         offset="1"
         id="stop5840" />
    </linearGradient>
    <linearGradient
       x1="0"
       y1="0"
       x2="1"
       y2="0"
       gradientUnits="userSpaceOnUse"
       gradientTransform="matrix(14.066188,14.066188,14.066188,-14.066188,325.96729,736.14014)"
       spreadMethod="pad"
       id="linearGradient5816">
      <stop
         style="stop-opacity:1;stop-color:#cedfe8"
         offset="0"
         id="stop5818" />
      <stop
         style="stop-opacity:1;stop-color:#587f91"
         offset="1"
         id="stop5820" />
    </linearGradient>
    <clipPath
       clipPathUnits="userSpaceOnUse"
       id="clipPath5796">
      <path
         inkscape:connector-curvature="0"
         d="m 0,932 1190.551,0 0,-932 L 0,0 0,932 z"
         id="path5798" />
    </clipPath>
    <linearGradient
       x1="0"
       y1="0"
       x2="1"
       y2="0"
       gradientUnits="userSpaceOnUse"
       gradientTransform="matrix(36,0,0,-36,315,718.98633)"
       spreadMethod="pad"
       id="linearGradient5784">
      <stop
         style="stop-opacity:1;stop-color:#cedfe8"
         offset="0"
         id="stop5786" />
      <stop
         style="stop-opacity:1;stop-color:#587f91"
         offset="1"
         id="stop5788" />
    </linearGradient>
    <linearGradient
       x1="0"
       y1="0"
       x2="1"
       y2="0"
       gradientUnits="userSpaceOnUse"
       gradientTransform="matrix(14.066188,14.066188,14.066188,-14.066188,325.96729,720.39014)"
       spreadMethod="pad"
       id="linearGradient5764">
      <stop
         style="stop-opacity:1;stop-color:#cedfe8"
         offset="0"
         id="stop5766" />
      <stop
         style="stop-opacity:1;stop-color:#587f91"
         offset="1"
         id="stop5768" />
    </linearGradient>
    <clipPath
       clipPathUnits="userSpaceOnUse"
       id="clipPath5744">
      <path
         inkscape:connector-curvature="0"
         d="m 0,932 1190.551,0 0,-932 L 0,0 0,932 z"
         id="path5746" />
    </clipPath>
    <linearGradient
       x1="0"
       y1="0"
       x2="1"
       y2="0"
       gradientUnits="userSpaceOnUse"
       gradientTransform="matrix(-4.3e-6,98.999512,98.999512,4.3e-6,333,676.11133)"
       spreadMethod="pad"
       id="linearGradient340">
      <stop
         style="stop-opacity:1;stop-color:#c9d5dc"
         offset="0"
         id="stop342" />
      <stop
         style="stop-opacity:1;stop-color:#ffffff"
         offset="1"
         id="stop344" />
    </linearGradient>
    <clipPath
       clipPathUnits="userSpaceOnUse"
       id="clipPath4418">
      <path
         inkscape:connector-curvature="0"
         d="m 0,932 1190.551,0 0,-932 L 0,0 0,932 z"
         id="path4420" />
    </clipPath>
    <linearGradient
       x1="0"
       y1="0"
       x2="1"
       y2="0"
       gradientUnits="userSpaceOnUse"
       gradientTransform="matrix(13.500284,13.500284,13.500284,-13.500284,1062,492.11133)"
       spreadMethod="pad"
       id="linearGradient4406">
      <stop
         style="stop-opacity:1;stop-color:#f2f6d6"
         offset="0"
         id="stop4408" />
      <stop
         style="stop-opacity:1;stop-color:#689d41"
         offset="1"
         id="stop4410" />
    </linearGradient>
    <linearGradient
       x1="0"
       y1="0"
       x2="1"
       y2="0"
       gradientUnits="userSpaceOnUse"
       gradientTransform="matrix(39.209209,39.209209,39.209209,-39.209209,1033.2686,456.58496)"
       spreadMethod="pad"
       id="linearGradient4386">
      <stop
         style="stop-opacity:1;stop-color:#69993f"
         offset="0"
         id="stop4388" />
      <stop
         style="stop-opacity:1;stop-color:#38572c"
         offset="1"
         id="stop4390" />
    </linearGradient>
    <clipPath
       clipPathUnits="userSpaceOnUse"
       id="clipPath4362">
      <path
         inkscape:connector-curvature="0"
         d="m 0,932 1190.551,0 0,-932 L 0,0 0,932 z"
         id="path4364" />
    </clipPath>
    <linearGradient
       x1="0"
       y1="0"
       x2="1"
       y2="0"
       gradientUnits="userSpaceOnUse"
       gradientTransform="matrix(-4.3e-6,98.999512,98.999512,4.3e-6,1053,420.11133)"
       spreadMethod="pad"
       id="linearGradient4350">
      <stop
         style="stop-opacity:1;stop-color:#5a893b"
         offset="0"
         id="stop4352" />
      <stop
         style="stop-opacity:1;stop-color:#89c64c"
         offset="1"
         id="stop4354" />
    </linearGradient>
  </defs>
  <sodipodi:namedview
     id="base"
     pagecolor="#ffffff"
     bordercolor="#666666"
     borderopacity="1.0"
     inkscape:pageopacity="0.0"
     inkscape:pageshadow="2"
     inkscape:zoom="1.979899"
     inkscape:cx="95.238023"
     inkscape:cy="106.1569"
     inkscape:document-units="px"
     inkscape:current-layer="layer1"
     showgrid="false"
     fit-margin-top="0"
     fit-margin-left="0"
     fit-margin-right="0"
     fit-margin-bottom="0"
     inkscape:window-width="1920"
     inkscape:window-height="1031"
     inkscape:window-x="1280"
     inkscape:window-y="0"
     inkscape:window-maximized="1" />
  <metadata
     id="metadata9188">
    <rdf:RDF>
      <cc:Work
         rdf:about="">
        <dc:format>image/svg+xml</dc:format>
        <dc:type
           rdf:resource="http://purl.org/dc/dcmitype/StillImage" />
        <dc:title></dc:title>
      </cc:Work>
    </rdf:RDF>
  </metadata>
  <g
     inkscape:label="Layer 1"
     inkscape:groupmode="layer"
     id="layer1"
     transform="translate(-485.83331,-854.00378)">
    <g
       transform="matrix(1.25,0,0,-1.25,-784.16669,1504.1429)"
       id="g4338">
      <g
         id="g4340">
        <g
           id="g4346">
          <g
             id="g4348">
            <path
               inkscape:connector-curvature="0"
               d="m 1017,519.111 0,-99 72,0 0,72 -27,27 -45,0 z"
               style="fill:url(#linearGradient4350);stroke:none"
               id="path4356" />
          </g>
        </g>
      </g>
    </g>
    <g
       transform="matrix(1.25,0,0,-1.25,-784.16669,1504.1429)"
       id="g4358">
      <g
         id="g4360"
         clip-path="url(#clipPath4362)">
        <g
           id="g4366"
           transform="translate(1062,519.1113)">
          <path
             inkscape:connector-curvature="0"
             d="m 0,0 27,-27 0,-72 -72,0 0,99 45,0 z"
             style="fill:none;stroke:#5b863a;stroke-width:2;stroke-linecap:butt;stroke-linejoin:miter;stroke-miterlimit:4;stroke-opacity:1;stroke-dasharray:none"
             id="path4368" />
        </g>
      </g>
    </g>
    <text
       style="font-size:15px"
       y="970.01392"
       x="505.16452"
       id="text4370">
      <tspan
         style="font-size:27.5px;font-variant:normal;font-weight:bold;font-stretch:normal;writing-mode:lr-tb;fill:#ffffff;fill-opacity:1;fill-rule:nonzero;stroke:none;font-family:Arial;-inkscape-font-specification:Arial-BoldMT"
         sodipodi:role="line"
         id="tspan4372"
         x="505.16452"
         y="970.01392">XXX</tspan>
    </text>
    <g
       transform="matrix(1.25,0,0,-1.25,-784.16669,1504.1429)"
       id="g4374">
      <g
         id="g4376">
        <g
           id="g4382">
          <g
             id="g4384">
            <path
               inkscape:connector-curvature="0"
               d="m 1058.745,495.111 0,-2.034 c 1.784,-0.174 2.92,-0.386 3.405,-0.638 l 0,0 c 0.485,-0.252 0.727,-0.63 0.727,-1.134 l 0,0 c 0,-0.435 -0.42,-1.248 -1.26,-2.436 l 0,0 c -0.843,-1.19 -2.902,-3.737 -6.182,-7.644 l 0,0 c -1.112,1.701 -2.108,3.222 -2.986,4.557 l 0,0 c -0.877,1.338 -1.526,2.353 -1.943,3.047 l 0,0 c -0.488,0.799 -0.813,1.385 -0.977,1.758 l 0,0 c -0.167,0.374 -0.249,0.683 -0.249,0.925 l 0,0 c 0,0.487 0.421,0.852 1.265,1.097 l 0,0 c 0.843,0.242 2.143,0.398 3.899,0.468 l 0,0 0,2.034 -22.604,0 0,-2.034 c 0.783,-0.052 1.454,-0.142 2.012,-0.273 l 0,0 c 0.556,-0.131 1.061,-0.292 1.514,-0.482 l 0,0 c 0.906,-0.349 1.771,-0.923 2.599,-1.721 l 0,0 c 0.826,-0.799 1.519,-1.6 2.074,-2.399 l 0,0 c 1.112,-1.598 2.465,-3.537 4.063,-5.814 l 0,0 c 1.596,-2.276 3.194,-4.621 4.791,-7.038 l 0,0 c -1.684,-1.964 -3.292,-3.816 -4.82,-5.553 l 0,0 c -1.528,-1.738 -2.901,-3.294 -4.116,-4.667 l 0,0 c -0.835,-0.957 -1.644,-1.795 -2.428,-2.516 l 0,0 c -0.783,-0.722 -1.679,-1.316 -2.687,-1.787 l 0,0 c -0.436,-0.192 -0.874,-0.337 -1.319,-0.441 l 0,0 c -0.443,-0.105 -1.039,-0.184 -1.786,-0.237 l 0,0 0,-2.032 14.364,0 0,2.032 c -0.812,0.07 -1.513,0.167 -2.104,0.287 l 0,0 c -0.591,0.122 -1.008,0.252 -1.251,0.391 l 0,0 c -0.33,0.158 -0.534,0.319 -0.613,0.482 l 0,0 c -0.078,0.167 -0.117,0.369 -0.117,0.614 l 0,0 c 0,0.451 0.491,1.373 1.473,2.763 l 0,0 c 0.982,1.391 3.297,4.197 6.943,8.42 l 0,0 c 1.096,-1.635 2.152,-3.221 3.168,-4.758 l 0,0 c 1.017,-1.538 1.83,-2.819 2.438,-3.845 l 0,0 c 0.399,-0.643 0.713,-1.211 0.938,-1.707 l 0,0 c 0.226,-0.494 0.339,-0.856 0.339,-1.082 l 0,0 c 0,-0.416 -0.312,-0.752 -0.939,-1.004 l 0,0 c -0.626,-0.252 -2.018,-0.437 -4.175,-0.561 l 0,0 0,-2.032 22.551,0 0,2.032 c -0.886,0.053 -1.598,0.149 -2.137,0.287 l 0,0 c -0.54,0.139 -1.017,0.288 -1.434,0.444 l 0,0 c -0.888,0.348 -1.743,0.925 -2.569,1.734 l 0,0 c -0.825,0.809 -1.499,1.611 -2.02,2.411 l 0,0 c -1.339,1.874 -2.756,3.88 -4.251,6.015 l 0,0 c -1.496,2.135 -3.295,4.783 -5.399,7.944 l 0,0 c 1.705,1.949 3.143,3.599 4.316,4.949 l 0,0 c 1.175,1.348 2.405,2.737 3.691,4.165 l 0,0 c 0.87,0.956 1.669,1.79 2.399,2.503 l 0,0 c 0.73,0.713 1.633,1.312 2.711,1.798 l 0,0 c 0.556,0.226 1.047,0.391 1.473,0.497 l 0,0 c 0.426,0.103 0.969,0.164 1.63,0.181 l 0,0 0,2.034 -14.417,0 z"
               style="fill:url(#linearGradient4386);stroke:none"
               id="path4392" />
          </g>
        </g>
      </g>
    </g>
    <g
       transform="matrix(1.25,0,0,-1.25,-784.16669,1504.1429)"
       id="g4394">
      <g
         id="g4396">
        <g
           id="g4402">
          <g
             id="g4404">
            <path
               inkscape:connector-curvature="0"
               d="m 1062,492.111 27,0 -27,27 0,-27 z"
               style="fill:url(#linearGradient4406);stroke:none"
               id="path4412" />
          </g>
        </g>
      </g>
    </g>
    <g
       transform="matrix(1.25,0,0,-1.25,-784.16669,1504.1429)"
       id="g4414">
      <g
         id="g4416"
         clip-path="url(#clipPath4418)">
        <g
           id="g4422"
           transform="translate(1062,519.1113)">
          <path
             inkscape:connector-curvature="0"
             d="M 0,0 27,-27 0,-27 0,0 z"
             style="fill:none;stroke:#5b863a;stroke-width:2;stroke-linecap:butt;stroke-linejoin:bevel;stroke-miterlimit:4;stroke-opacity:1;stroke-dasharray:none"
             id="path4424" />
        </g>
      </g>
    </g>
  </g>
</svg>
