<?xml version="1.0" encoding="UTF-8" standalone="no"?>
<!-- Created with Inkscape (http://www.inkscape.org/) -->

<svg
   xmlns:dc="http://purl.org/dc/elements/1.1/"
   xmlns:cc="http://creativecommons.org/ns#"
   xmlns:rdf="http://www.w3.org/1999/02/22-rdf-syntax-ns#"
   xmlns:svg="http://www.w3.org/2000/svg"
   xmlns="http://www.w3.org/2000/svg"
   xmlns:sodipodi="http://sodipodi.sourceforge.net/DTD/sodipodi-0.dtd"
   xmlns:inkscape="http://www.inkscape.org/namespaces/inkscape"
   width="92.5"
   height="126.25"
   id="svg9183"
   version="1.1"
   inkscape:version="0.48.3.1 r9886"
   sodipodi:docname="VECTOR_IMAGE.svg">
  <defs
     id="defs9185">
    <clipPath
       clipPathUnits="userSpaceOnUse"
       id="clipPath2446">
      <path
         inkscape:connector-curvature="0"
         d="m 0,932 1190.551,0 0,-932 L 0,0 0,932 z"
         id="path2448" />
    </clipPath>
    <linearGradient
       x1="0"
       y1="0"
       x2="1"
       y2="0"
       gradientUnits="userSpaceOnUse"
       gradientTransform="matrix(-2.5e-6,57.874023,57.874023,2.5e-6,238.38379,848.2373)"
       spreadMethod="pad"
       id="linearGradient2430">
      <stop
         style="stop-opacity:1;stop-color:#a78229"
         offset="0"
         id="stop2432" />
      <stop
         style="stop-opacity:1;stop-color:#dec028"
         offset="0.532995"
         id="stop2434" />
      <stop
         style="stop-opacity:1;stop-color:#dec028"
         offset="0.532995"
         id="stop2436" />
      <stop
         style="stop-opacity:1;stop-color:#a37e29"
         offset="1"
         id="stop2438" />
    </linearGradient>
    <clipPath
       clipPathUnits="userSpaceOnUse"
       id="clipPath2410">
      <path
         inkscape:connector-curvature="0"
         d="m 0,932 1190.551,0 0,-932 L 0,0 0,932 z"
         id="path2412" />
    </clipPath>
    <linearGradient
       x1="0"
       y1="0"
       x2="1"
       y2="0"
       gradientUnits="userSpaceOnUse"
       gradientTransform="matrix(13.500284,13.500284,13.500284,-13.500284,249.69385,882.11084)"
       spreadMethod="pad"
       id="linearGradient2398">
      <stop
         style="stop-opacity:1;stop-color:#ffffff"
         offset="0"
         id="stop2400" />
      <stop
         style="stop-opacity:1;stop-color:#f0c629"
         offset="1"
         id="stop2402" />
    </linearGradient>
    <clipPath
       clipPathUnits="userSpaceOnUse"
       id="clipPath2374">
      <path
         inkscape:connector-curvature="0"
         d="m 0,932 1190.551,0 0,-932 L 0,0 0,932 z"
         id="path2376" />
    </clipPath>
    <linearGradient
       x1="0"
       y1="0"
       x2="1"
       y2="0"
       gradientUnits="userSpaceOnUse"
       gradientTransform="matrix(-4.3e-6,99,99,4.3e-6,240.69336,810.11133)"
       spreadMethod="pad"
       id="linearGradient2362">
      <stop
         style="stop-opacity:1;stop-color:#f0c629"
         offset="0"
         id="stop2364" />
      <stop
         style="stop-opacity:1;stop-color:#ffffff"
         offset="1"
         id="stop2366" />
    </linearGradient>
    <linearGradient
       x1="0"
       y1="0"
       x2="1"
       y2="0"
       gradientUnits="userSpaceOnUse"
       gradientTransform="matrix(13.499939,13.499939,13.499939,-13.499939,429.64111,882.11084)"
       spreadMethod="pad"
       id="linearGradient5936">
      <stop
         style="stop-opacity:1;stop-color:#ffffff"
         offset="0"
         id="stop5938" />
      <stop
         style="stop-opacity:1;stop-color:#f0c629"
         offset="1"
         id="stop5940" />
    </linearGradient>
    <clipPath
       clipPathUnits="userSpaceOnUse"
       id="clipPath5668">
      <path
         inkscape:connector-curvature="0"
         d="m 0,932 1190.551,0 0,-932 L 0,0 0,932 z"
         id="path5670" />
    </clipPath>
    <clipPath
       clipPathUnits="userSpaceOnUse"
       id="clipPath5676">
      <path
         inkscape:connector-curvature="0"
         d="m 397.613,891.111 45,0 0,-45 -45,0 0,45 z"
         id="path5678" />
    </clipPath>
    <linearGradient
       x1="0"
       y1="0"
       x2="1"
       y2="0"
       gradientUnits="userSpaceOnUse"
       gradientTransform="matrix(-2e-6,45,45,2e-6,420.11328,846.11133)"
       spreadMethod="pad"
       id="linearGradient5684">
      <stop
         style="stop-opacity:1;stop-color:#a78229"
         offset="0"
         id="stop5686" />
      <stop
         style="stop-opacity:1;stop-color:#dec028"
         offset="0.532995"
         id="stop5688" />
      <stop
         style="stop-opacity:1;stop-color:#dec028"
         offset="0.532995"
         id="stop5690" />
      <stop
         style="stop-opacity:1;stop-color:#a37e29"
         offset="1"
         id="stop5692" />
    </linearGradient>
    <clipPath
       clipPathUnits="userSpaceOnUse"
       id="clipPath5712">
      <path
         inkscape:connector-curvature="0"
         d="m 417.301,871.424 5.625,0 0,-5.625 -5.625,0 0,5.625 z"
         id="path5714" />
    </clipPath>
    <clipPath
       clipPathUnits="userSpaceOnUse"
       id="clipPath5728">
      <path
         inkscape:connector-curvature="0"
         d="m 411.676,877.049 16.875,0 0,-16.875 -16.875,0 0,16.875 z"
         id="path5730" />
    </clipPath>
    <clipPath
       clipPathUnits="userSpaceOnUse"
       id="clipPath5652">
      <path
         inkscape:connector-curvature="0"
         d="m 0,932 1190.551,0 0,-932 L 0,0 0,932 z"
         id="path5654" />
    </clipPath>
    <linearGradient
       x1="0"
       y1="0"
       x2="1"
       y2="0"
       gradientUnits="userSpaceOnUse"
       gradientTransform="matrix(-4.3e-6,99,99,4.3e-6,420.11328,810.11133)"
       spreadMethod="pad"
       id="linearGradient5640">
      <stop
         style="stop-opacity:1;stop-color:#f0c629"
         offset="0"
         id="stop5642" />
      <stop
         style="stop-opacity:1;stop-color:#ffffff"
         offset="1"
         id="stop5644" />
    </linearGradient>
    <clipPath
       clipPathUnits="userSpaceOnUse"
       id="clipPath1894">
      <path
         inkscape:connector-curvature="0"
         d="m 0,932 1190.551,0 0,-932 L 0,0 0,932 z"
         id="path1896" />
    </clipPath>
    <linearGradient
       x1="0"
       y1="0"
       x2="1"
       y2="0"
       gradientUnits="userSpaceOnUse"
       gradientTransform="matrix(13.500284,13.500284,13.500284,-13.500284,612,747.11133)"
       spreadMethod="pad"
       id="linearGradient1882">
      <stop
         style="stop-opacity:1;stop-color:#ffffff"
         offset="0"
         id="stop1884" />
      <stop
         style="stop-opacity:1;stop-color:#96a8b3"
         offset="1"
         id="stop1886" />
    </linearGradient>
    <linearGradient
       x1="0"
       y1="0"
       x2="1"
       y2="0"
       gradientUnits="userSpaceOnUse"
       gradientTransform="matrix(-1.7e-6,39.448242,39.448242,1.7e-6,617.78223,713.8877)"
       spreadMethod="pad"
       id="linearGradient916">
      <stop
         style="stop-opacity:1;stop-color:#8a9ea9"
         offset="0"
         id="stop918" />
      <stop
         style="stop-opacity:1;stop-color:#4c6977"
         offset="0.989848"
         id="stop920" />
      <stop
         style="stop-opacity:1;stop-color:#4c6977"
         offset="1"
         id="stop922" />
    </linearGradient>
    <linearGradient
       x1="0"
       y1="0"
       x2="1"
       y2="0"
       gradientUnits="userSpaceOnUse"
       gradientTransform="matrix(-1.7e-6,39.448242,39.448242,1.7e-6,587.52637,713.8877)"
       spreadMethod="pad"
       id="linearGradient894">
      <stop
         style="stop-opacity:1;stop-color:#8a9ea9"
         offset="0"
         id="stop896" />
      <stop
         style="stop-opacity:1;stop-color:#4c6977"
         offset="0.989848"
         id="stop898" />
      <stop
         style="stop-opacity:1;stop-color:#4c6977"
         offset="1"
         id="stop900" />
    </linearGradient>
    <linearGradient
       x1="0"
       y1="0"
       x2="1"
       y2="0"
       gradientUnits="userSpaceOnUse"
       gradientTransform="matrix(-4.3e-6,99,99,4.3e-6,603,675.11133)"
       spreadMethod="pad"
       id="linearGradient866">
      <stop
         style="stop-opacity:1;stop-color:#c9d5dc"
         offset="0"
         id="stop868" />
      <stop
         style="stop-opacity:1;stop-color:#ffffff"
         offset="1"
         id="stop870" />
    </linearGradient>
    <linearGradient
       x1="0"
       y1="0"
       x2="1"
       y2="0"
       gradientUnits="userSpaceOnUse"
       gradientTransform="matrix(-1.5e-6,34.740723,34.740723,1.5e-6,1053.0332,811.06787)"
       spreadMethod="pad"
       id="linearGradient5330">
      <stop
         style="stop-opacity:1;stop-color:#f04d44"
         offset="0"
         id="stop5332" />
      <stop
         style="stop-opacity:1;stop-color:#c1343e"
         offset="1"
         id="stop5334" />
    </linearGradient>
    <clipPath
       clipPathUnits="userSpaceOnUse"
       id="clipPath2814">
      <path
         inkscape:connector-curvature="0"
         d="m 0,932 1190.551,0 0,-932 L 0,0 0,932 z"
         id="path2816" />
    </clipPath>
    <linearGradient
       x1="0"
       y1="0"
       x2="1"
       y2="0"
       gradientUnits="userSpaceOnUse"
       gradientTransform="matrix(13.499939,13.499939,13.499939,-13.499939,1062,882.11133)"
       spreadMethod="pad"
       id="linearGradient2802">
      <stop
         style="stop-opacity:1;stop-color:#ffffff"
         offset="0"
         id="stop2804" />
      <stop
         style="stop-opacity:1;stop-color:#96a8b3"
         offset="1"
         id="stop2806" />
    </linearGradient>
    <clipPath
       clipPathUnits="userSpaceOnUse"
       id="clipPath5668-1">
      <path
         inkscape:connector-curvature="0"
         d="m 0,932 1190.551,0 0,-932 L 0,0 0,932 z"
         id="path5670-6" />
    </clipPath>
    <clipPath
       clipPathUnits="userSpaceOnUse"
       id="clipPath5676-8">
      <path
         inkscape:connector-curvature="0"
         d="m 397.613,891.111 45,0 0,-45 -45,0 0,45 z"
         id="path5678-4" />
    </clipPath>
    <linearGradient
       x1="0"
       y1="0"
       x2="1"
       y2="0"
       gradientUnits="userSpaceOnUse"
       gradientTransform="matrix(-2e-6,45,45,2e-6,420.11328,846.11133)"
       spreadMethod="pad"
       id="linearGradient5684-6">
      <stop
         style="stop-opacity:1;stop-color:#a78229"
         offset="0"
         id="stop5686-2" />
      <stop
         style="stop-opacity:1;stop-color:#dec028"
         offset="0.532995"
         id="stop5688-7" />
      <stop
         style="stop-opacity:1;stop-color:#dec028"
         offset="0.532995"
         id="stop5690-2" />
      <stop
         style="stop-opacity:1;stop-color:#a37e29"
         offset="1"
         id="stop5692-8" />
    </linearGradient>
    <clipPath
       clipPathUnits="userSpaceOnUse"
       id="clipPath5712-3">
      <path
         inkscape:connector-curvature="0"
         d="m 417.301,871.424 5.625,0 0,-5.625 -5.625,0 0,5.625 z"
         id="path5714-0" />
    </clipPath>
    <clipPath
       clipPathUnits="userSpaceOnUse"
       id="clipPath5728-9">
      <path
         inkscape:connector-curvature="0"
         d="m 411.676,877.049 16.875,0 0,-16.875 -16.875,0 0,16.875 z"
         id="path5730-6" />
    </clipPath>
    <clipPath
       clipPathUnits="userSpaceOnUse"
       id="clipPath2782">
      <path
         inkscape:connector-curvature="0"
         d="m 0,932 1190.551,0 0,-932 L 0,0 0,932 z"
         id="path2784" />
    </clipPath>
    <linearGradient
       x1="0"
       y1="0"
       x2="1"
       y2="0"
       gradientUnits="userSpaceOnUse"
       gradientTransform="matrix(-4.3e-6,99,99,4.3e-6,1053,810.11133)"
       spreadMethod="pad"
       id="linearGradient2770">
      <stop
         style="stop-opacity:1;stop-color:#c9d5dc"
         offset="0"
         id="stop2772" />
      <stop
         style="stop-opacity:1;stop-color:#ffffff"
         offset="1"
         id="stop2774" />
    </linearGradient>
    <linearGradient
       x1="0"
       y1="0"
       x2="1"
       y2="0"
       gradientUnits="userSpaceOnUse"
       gradientTransform="matrix(13.500284,13.500284,13.500284,-13.500284,162.00098,492.11035)"
       spreadMethod="pad"
       id="linearGradient820">
      <stop
         style="stop-opacity:1;stop-color:#ffffff"
         offset="0"
         id="stop822" />
      <stop
         style="stop-opacity:1;stop-color:#96a8b3"
         offset="1"
         id="stop824" />
    </linearGradient>
    <linearGradient
       x1="0"
       y1="0"
       x2="1"
       y2="0"
       gradientUnits="userSpaceOnUse"
       gradientTransform="matrix(-4.3e-6,98.999512,98.999512,4.3e-6,153,420.11133)"
       spreadMethod="pad"
       id="linearGradient792">
      <stop
         style="stop-opacity:1;stop-color:#c9d5dc"
         offset="0"
         id="stop794" />
      <stop
         style="stop-opacity:1;stop-color:#ffffff"
         offset="1"
         id="stop796" />
    </linearGradient>
    <clipPath
       clipPathUnits="userSpaceOnUse"
       id="clipPath2650">
      <path
         inkscape:connector-curvature="0"
         d="m 0,932 1190.551,0 0,-932 L 0,0 0,932 z"
         id="path2652" />
    </clipPath>
    <linearGradient
       x1="0"
       y1="0"
       x2="1"
       y2="0"
       gradientUnits="userSpaceOnUse"
       gradientTransform="matrix(13.499939,13.499939,13.499939,-13.499939,1152.001,882.11035)"
       spreadMethod="pad"
       id="linearGradient2638">
      <stop
         style="stop-opacity:1;stop-color:#ffffff"
         offset="0"
         id="stop2640" />
      <stop
         style="stop-opacity:1;stop-color:#96a8b3"
         offset="1"
         id="stop2642" />
    </linearGradient>
    <linearGradient
       x1="0"
       y1="0"
       x2="1"
       y2="0"
       gradientUnits="userSpaceOnUse"
       gradientTransform="matrix(-2.2e-6,51.141113,51.141113,2.2e-6,1141.9365,845.31055)"
       spreadMethod="pad"
       id="linearGradient978">
      <stop
         style="stop-opacity:1;stop-color:#afcddd"
         offset="0"
         id="stop980" />
      <stop
         style="stop-opacity:1;stop-color:#567280"
         offset="1"
         id="stop982" />
    </linearGradient>
    <linearGradient
       x1="0"
       y1="0"
       x2="1"
       y2="0"
       gradientUnits="userSpaceOnUse"
       gradientTransform="matrix(-4.3e-6,99,99,4.3e-6,1143,810.11133)"
       spreadMethod="pad"
       id="linearGradient660">
      <stop
         style="stop-opacity:1;stop-color:#c9d5dc"
         offset="0"
         id="stop662" />
      <stop
         style="stop-opacity:1;stop-color:#ffffff"
         offset="1"
         id="stop664" />
    </linearGradient>
    <linearGradient
       x1="0"
       y1="0"
       x2="1"
       y2="0"
       gradientUnits="userSpaceOnUse"
       gradientTransform="matrix(13.500284,13.500284,13.500284,-13.500284,342.00049,748.10986)"
       spreadMethod="pad"
       id="linearGradient5960">
      <stop
         style="stop-opacity:1;stop-color:#ffffff"
         offset="0"
         id="stop5962" />
      <stop
         style="stop-opacity:1;stop-color:#96a8b3"
         offset="1"
         id="stop5964" />
    </linearGradient>
    <linearGradient
       x1="0"
       y1="0"
       x2="1"
       y2="0"
       gradientUnits="userSpaceOnUse"
       gradientTransform="matrix(36,0,0,-36,315,750.48633)"
       spreadMethod="pad"
       id="linearGradient5888">
      <stop
         style="stop-opacity:1;stop-color:#cedfe8"
         offset="0"
         id="stop5890" />
      <stop
         style="stop-opacity:1;stop-color:#7193a4"
         offset="1"
         id="stop5892" />
    </linearGradient>
    <linearGradient
       x1="0"
       y1="0"
       x2="1"
       y2="0"
       gradientUnits="userSpaceOnUse"
       gradientTransform="matrix(14.066188,14.066188,14.066188,-14.066188,325.9668,751.89062)"
       spreadMethod="pad"
       id="linearGradient5868">
      <stop
         style="stop-opacity:1;stop-color:#cedfe8"
         offset="0"
         id="stop5870" />
      <stop
         style="stop-opacity:1;stop-color:#7193a4"
         offset="1"
         id="stop5872" />
    </linearGradient>
    <clipPath
       clipPathUnits="userSpaceOnUse"
       id="clipPath5848">
      <path
         inkscape:connector-curvature="0"
         d="m 0,932 1190.551,0 0,-932 L 0,0 0,932 z"
         id="path5850" />
    </clipPath>
    <linearGradient
       x1="0"
       y1="0"
       x2="1"
       y2="0"
       gradientUnits="userSpaceOnUse"
       gradientTransform="matrix(36,0,0,-36,315,734.73633)"
       spreadMethod="pad"
       id="linearGradient5836">
      <stop
         style="stop-opacity:1;stop-color:#cedfe8"
         offset="0"
         id="stop5838" />
      <stop
         style="stop-opacity:1;stop-color:#587f91"
         offset="1"
         id="stop5840" />
    </linearGradient>
    <linearGradient
       x1="0"
       y1="0"
       x2="1"
       y2="0"
       gradientUnits="userSpaceOnUse"
       gradientTransform="matrix(14.066188,14.066188,14.066188,-14.066188,325.96729,736.14014)"
       spreadMethod="pad"
       id="linearGradient5816">
      <stop
         style="stop-opacity:1;stop-color:#cedfe8"
         offset="0"
         id="stop5818" />
      <stop
         style="stop-opacity:1;stop-color:#587f91"
         offset="1"
         id="stop5820" />
    </linearGradient>
    <clipPath
       clipPathUnits="userSpaceOnUse"
       id="clipPath5796">
      <path
         inkscape:connector-curvature="0"
         d="m 0,932 1190.551,0 0,-932 L 0,0 0,932 z"
         id="path5798" />
    </clipPath>
    <linearGradient
       x1="0"
       y1="0"
       x2="1"
       y2="0"
       gradientUnits="userSpaceOnUse"
       gradientTransform="matrix(36,0,0,-36,315,718.98633)"
       spreadMethod="pad"
       id="linearGradient5784">
      <stop
         style="stop-opacity:1;stop-color:#cedfe8"
         offset="0"
         id="stop5786" />
      <stop
         style="stop-opacity:1;stop-color:#587f91"
         offset="1"
         id="stop5788" />
    </linearGradient>
    <linearGradient
       x1="0"
       y1="0"
       x2="1"
       y2="0"
       gradientUnits="userSpaceOnUse"
       gradientTransform="matrix(14.066188,14.066188,14.066188,-14.066188,325.96729,720.39014)"
       spreadMethod="pad"
       id="linearGradient5764">
      <stop
         style="stop-opacity:1;stop-color:#cedfe8"
         offset="0"
         id="stop5766" />
      <stop
         style="stop-opacity:1;stop-color:#587f91"
         offset="1"
         id="stop5768" />
    </linearGradient>
    <clipPath
       clipPathUnits="userSpaceOnUse"
       id="clipPath5744">
      <path
         inkscape:connector-curvature="0"
         d="m 0,932 1190.551,0 0,-932 L 0,0 0,932 z"
         id="path5746" />
    </clipPath>
    <linearGradient
       x1="0"
       y1="0"
       x2="1"
       y2="0"
       gradientUnits="userSpaceOnUse"
       gradientTransform="matrix(-4.3e-6,98.999512,98.999512,4.3e-6,333,676.11133)"
       spreadMethod="pad"
       id="linearGradient340">
      <stop
         style="stop-opacity:1;stop-color:#c9d5dc"
         offset="0"
         id="stop342" />
      <stop
         style="stop-opacity:1;stop-color:#ffffff"
         offset="1"
         id="stop344" />
    </linearGradient>
    <clipPath
       clipPathUnits="userSpaceOnUse"
       id="clipPath4418">
      <path
         inkscape:connector-curvature="0"
         d="m 0,932 1190.551,0 0,-932 L 0,0 0,932 z"
         id="path4420" />
    </clipPath>
    <linearGradient
       x1="0"
       y1="0"
       x2="1"
       y2="0"
       gradientUnits="userSpaceOnUse"
       gradientTransform="matrix(13.500284,13.500284,13.500284,-13.500284,1062,492.11133)"
       spreadMethod="pad"
       id="linearGradient4406">
      <stop
         style="stop-opacity:1;stop-color:#f2f6d6"
         offset="0"
         id="stop4408" />
      <stop
         style="stop-opacity:1;stop-color:#689d41"
         offset="1"
         id="stop4410" />
    </linearGradient>
    <linearGradient
       x1="0"
       y1="0"
       x2="1"
       y2="0"
       gradientUnits="userSpaceOnUse"
       gradientTransform="matrix(39.209209,39.209209,39.209209,-39.209209,1033.2686,456.58496)"
       spreadMethod="pad"
       id="linearGradient4386">
      <stop
         style="stop-opacity:1;stop-color:#69993f"
         offset="0"
         id="stop4388" />
      <stop
         style="stop-opacity:1;stop-color:#38572c"
         offset="1"
         id="stop4390" />
    </linearGradient>
    <clipPath
       clipPathUnits="userSpaceOnUse"
       id="clipPath4362">
      <path
         inkscape:connector-curvature="0"
         d="m 0,932 1190.551,0 0,-932 L 0,0 0,932 z"
         id="path4364" />
    </clipPath>
    <linearGradient
       x1="0"
       y1="0"
       x2="1"
       y2="0"
       gradientUnits="userSpaceOnUse"
       gradientTransform="matrix(-4.3e-6,98.999512,98.999512,4.3e-6,1053,420.11133)"
       spreadMethod="pad"
       id="linearGradient4350">
      <stop
         style="stop-opacity:1;stop-color:#5a893b"
         offset="0"
         id="stop4352" />
      <stop
         style="stop-opacity:1;stop-color:#89c64c"
         offset="1"
         id="stop4354" />
    </linearGradient>
    <linearGradient
       x1="0"
       y1="0"
       x2="1"
       y2="0"
       gradientUnits="userSpaceOnUse"
       gradientTransform="matrix(-2.6e-6,-60.232422,-60.232422,2.6e-6,872.97461,389.43945)"
       spreadMethod="pad"
       id="linearGradient4574">
      <stop
         style="stop-opacity:1;stop-color:#009dde"
         offset="0"
         id="stop4576" />
      <stop
         style="stop-opacity:1;stop-color:#02bff3"
         offset="1"
         id="stop4578" />
    </linearGradient>
    <clipPath
       clipPathUnits="userSpaceOnUse"
       id="clipPath4550">
      <path
         inkscape:connector-curvature="0"
         d="m 0,932 1190.551,0 0,-932 L 0,0 0,932 z"
         id="path4552" />
    </clipPath>
    <linearGradient
       x1="0"
       y1="0"
       x2="1"
       y2="0"
       gradientUnits="userSpaceOnUse"
       gradientTransform="matrix(-9.0001936,-9.0001936,-9.0001936,9.0001936,895.41992,379.69141)"
       spreadMethod="pad"
       id="linearGradient4538">
      <stop
         style="stop-opacity:1;stop-color:#00a1e2"
         offset="0"
         id="stop4540" />
      <stop
         style="stop-opacity:1;stop-color:#ffffff"
         offset="1"
         id="stop4542" />
    </linearGradient>
    <clipPath
       clipPathUnits="userSpaceOnUse"
       id="clipPath4518">
      <path
         inkscape:connector-curvature="0"
         d="m 0,932 1190.551,0 0,-932 L 0,0 0,932 z"
         id="path4520" />
    </clipPath>
    <linearGradient
       x1="0"
       y1="0"
       x2="1"
       y2="0"
       gradientUnits="userSpaceOnUse"
       gradientTransform="matrix(-4.3e-6,99,99,4.3e-6,873,294.11133)"
       spreadMethod="pad"
       id="linearGradient4506">
      <stop
         style="stop-opacity:1;stop-color:#00a9e9"
         offset="0"
         id="stop4508" />
      <stop
         style="stop-opacity:1;stop-color:#c0e8fb"
         offset="1"
         id="stop4510" />
    </linearGradient>
    <linearGradient
       x1="0"
       y1="0"
       x2="1"
       y2="0"
       gradientUnits="userSpaceOnUse"
       gradientTransform="matrix(-2.1e-6,48.304687,48.304687,2.1e-6,332.99756,328.84375)"
       spreadMethod="pad"
       id="linearGradient1506">
      <stop
         style="stop-opacity:1;stop-color:#008686"
         offset="0"
         id="stop1508" />
      <stop
         style="stop-opacity:1;stop-color:#004644"
         offset="1"
         id="stop1510" />
    </linearGradient>
    <clipPath
       clipPathUnits="userSpaceOnUse"
       id="clipPath1486">
      <path
         inkscape:connector-curvature="0"
         d="m 0,932 1190.551,0 0,-932 L 0,0 0,932 z"
         id="path1488" />
    </clipPath>
    <linearGradient
       x1="0"
       y1="0"
       x2="1"
       y2="0"
       gradientUnits="userSpaceOnUse"
       gradientTransform="matrix(13.499939,13.499939,13.499939,-13.499939,341.97949,366.11035)"
       spreadMethod="pad"
       id="linearGradient1474">
      <stop
         style="stop-opacity:1;stop-color:#d8eee9"
         offset="0"
         id="stop1476" />
      <stop
         style="stop-opacity:1;stop-color:#007170"
         offset="1"
         id="stop1478" />
    </linearGradient>
    <clipPath
       clipPathUnits="userSpaceOnUse"
       id="clipPath1450">
      <path
         inkscape:connector-curvature="0"
         d="m 0,932 1190.551,0 0,-932 L 0,0 0,932 z"
         id="path1452" />
    </clipPath>
    <linearGradient
       x1="0"
       y1="0"
       x2="1"
       y2="0"
       gradientUnits="userSpaceOnUse"
       gradientTransform="matrix(-4.3e-6,99,99,4.3e-6,332.97852,294.11133)"
       spreadMethod="pad"
       id="linearGradient1438">
      <stop
         style="stop-opacity:1;stop-color:#007170"
         offset="0"
         id="stop1440" />
      <stop
         style="stop-opacity:1;stop-color:#27bdbc"
         offset="1"
         id="stop1442" />
    </linearGradient>
    <clipPath
       clipPathUnits="userSpaceOnUse"
       id="clipPath3630">
      <path
         inkscape:connector-curvature="0"
         d="m 0,932 1190.551,0 0,-932 L 0,0 0,932 z"
         id="path3632" />
    </clipPath>
    <linearGradient
       x1="0"
       y1="0"
       x2="1"
       y2="0"
       gradientUnits="userSpaceOnUse"
       gradientTransform="matrix(13.500284,13.500284,13.500284,-13.500284,72.000488,240.11035)"
       spreadMethod="pad"
       id="linearGradient3618">
      <stop
         style="stop-opacity:1;stop-color:#faf0f6"
         offset="0"
         id="stop3620" />
      <stop
         style="stop-opacity:1;stop-color:#963b93"
         offset="1"
         id="stop3622" />
    </linearGradient>
    <linearGradient
       x1="0"
       y1="0"
       x2="1"
       y2="0"
       gradientUnits="userSpaceOnUse"
       gradientTransform="matrix(53.75293,0,0,-53.75293,38.310547,217.2832)"
       spreadMethod="pad"
       id="linearGradient3598">
      <stop
         style="stop-opacity:1;stop-color:#9a4295"
         offset="0"
         id="stop3600" />
      <stop
         style="stop-opacity:1;stop-color:#752f72"
         offset="1"
         id="stop3602" />
    </linearGradient>
    <clipPath
       clipPathUnits="userSpaceOnUse"
       id="clipPath3574">
      <path
         inkscape:connector-curvature="0"
         d="m 0,932 1190.551,0 0,-932 L 0,0 0,932 z"
         id="path3576" />
    </clipPath>
    <linearGradient
       x1="0"
       y1="0"
       x2="1"
       y2="0"
       gradientUnits="userSpaceOnUse"
       gradientTransform="matrix(-4.3e-6,-99,-99,4.3e-6,63,267.11133)"
       spreadMethod="pad"
       id="linearGradient3562">
      <stop
         style="stop-opacity:1;stop-color:#e2cee4"
         offset="0"
         id="stop3564" />
      <stop
         style="stop-opacity:1;stop-color:#963b93"
         offset="1"
         id="stop3566" />
    </linearGradient>
  </defs>
  <sodipodi:namedview
     id="base"
     pagecolor="#ffffff"
     bordercolor="#666666"
     borderopacity="1.0"
     inkscape:pageopacity="0.0"
     inkscape:pageshadow="2"
     inkscape:zoom="1.979899"
     inkscape:cx="114.29838"
     inkscape:cy="109.27339"
     inkscape:document-units="px"
     inkscape:current-layer="layer1"
     showgrid="false"
     fit-margin-top="0"
     fit-margin-left="0"
     fit-margin-right="0"
     fit-margin-bottom="0"
     inkscape:window-width="1920"
     inkscape:window-height="1031"
     inkscape:window-x="1280"
     inkscape:window-y="0"
     inkscape:window-maximized="1" />
  <metadata
     id="metadata9188">
    <rdf:RDF>
      <cc:Work
         rdf:about="">
        <dc:format>image/svg+xml</dc:format>
        <dc:type
           rdf:resource="http://purl.org/dc/dcmitype/StillImage" />
        <dc:title></dc:title>
      </cc:Work>
    </rdf:RDF>
  </metadata>
  <g
     inkscape:label="Layer 1"
     inkscape:groupmode="layer"
     id="layer1"
     transform="translate(-466.77295,-857.12027)">
    <g
       transform="matrix(1.25,0,0,-1.25,434.27295,1192.2594)"
       id="g3550">
      <g
         id="g3552">
        <g
           id="g3558">
          <g
             id="g3560">
            <path
               inkscape:connector-curvature="0"
               d="m 27,267.111 0,-99 72,0 0,72 -27,27 -45,0 z"
               style="fill:url(#linearGradient3562);stroke:none"
               id="path3568" />
          </g>
        </g>
      </g>
    </g>
    <g
       transform="matrix(1.25,0,0,-1.25,434.27295,1192.2594)"
       id="g3570">
      <g
         id="g3572"
         clip-path="url(#clipPath3574)">
        <g
           id="g3578"
           transform="translate(72,267.1113)">
          <path
             inkscape:connector-curvature="0"
             d="m 0,0 27,-27 0,-72 -72,0 0,99 45,0 z"
             style="fill:none;stroke:#8c3788;stroke-width:2;stroke-linecap:butt;stroke-linejoin:miter;stroke-miterlimit:4;stroke-opacity:1;stroke-dasharray:none"
             id="path3580" />
        </g>
      </g>
    </g>
    <text
       style="font-size:15px"
       y="972.62646"
       x="479.29834"
       id="text3582">
      <tspan
         style="font-size:35px;font-variant:normal;font-weight:bold;font-stretch:normal;writing-mode:lr-tb;fill:#ffffff;fill-opacity:1;fill-rule:nonzero;stroke:none;font-family:Arial;-inkscape-font-specification:Arial-BoldMT"
         sodipodi:role="line"
         id="tspan3584"
         x="479.29834"
         y="972.62646">XXX</tspan>
    </text>
    <g
       transform="matrix(1.25,0,0,-1.25,434.27295,1192.2594)"
       id="g3586">
      <g
         id="g3588">
        <g
           id="g3594">
          <g
             id="g3596">
            <path
               inkscape:connector-curvature="0"
               d="m 81.743,231.037 c -7.026,-0.344 -13.103,-1.465 -19.389,-2.592 l 0,0 c -6.391,-1.146 -12.879,-2.252 -20.018,-1.524 l 0,0 c -0.377,1.107 -0.244,2.714 -0.603,3.837 l 0,0 c -1.317,-0.379 -2.63,-0.762 -3.423,-1.674 l 0,0 c 0.817,-5.646 1.808,-11.64 2.399,-17.469 l 0,0 c 0.225,-2.236 0.193,-4.48 1.014,-5.755 l 0,0 c 1.199,-1.866 5.117,-2.647 8.489,-2.419 l 0,0 c 6.295,0.43 11.549,3.08 17.071,5.168 l 0,0 c 5.44,2.055 11.417,3.729 18.76,3.664 l 0,0 c 1.734,-0.015 3.439,-0.109 5.105,-0.271 l 0,0 0.916,19.047 c -1.691,0.077 -3.387,0.116 -5.08,0.116 l 0,0 c -1.755,0 -3.506,-0.042 -5.241,-0.128 m 0.397,-3.195 c -0.541,0.875 -0.253,2.466 1.292,1.904 l 0,0 c -0.048,-0.666 0.13,-1.563 -0.229,-1.914 l 0,0 c -0.355,0.004 -0.709,0.006 -1.063,0.01 m 3.831,0.179 c -0.157,0.803 0.269,1.016 0.228,1.7 l 0,0 c 0.425,-0.004 0.851,-0.008 1.277,-0.012 l 0,0 c -0.005,-0.568 -0.011,-1.132 -0.017,-1.701 l 0,0 c -0.496,0.003 -0.992,0.008 -1.488,0.013 m 4.059,1.664 c 0.425,-0.001 0.851,-0.008 1.275,-0.011 l 0,0 c -0.049,-0.665 0.131,-1.561 -0.229,-1.91 l 0,0 c -0.246,0.179 -0.568,0.285 -1.062,0.22 l 0,0 c 0.005,0.568 0.009,1.135 0.016,1.701 m -11.51,-2.023 c -0.496,0.77 -0.278,2.342 1.08,1.905 l 0,0 c -0.049,-0.665 0.13,-1.563 -0.23,-1.913 l 0,0 c -0.283,0.005 -0.568,0.005 -0.85,0.008 m -4.048,-0.389 c -0.145,1.291 -0.013,2.303 1.507,1.903 l 0,0 c -0.005,-0.569 -0.01,-1.137 -0.014,-1.705 l 0,0 c -0.318,0.052 -0.505,-0.03 -0.691,-0.111 l 0,0 c -0.144,-0.064 -0.289,-0.127 -0.495,-0.127 l 0,0 c -0.089,0 -0.19,0.012 -0.307,0.04 m -3.41,-0.609 c -0.326,0.312 -0.177,1.092 -0.198,1.705 l 0,0 c 0.134,0.293 0.819,0.024 0.857,0.418 l 0,0 c 0.863,0.077 0.221,-1.328 0.408,-1.92 l 0,0 c -0.323,0.099 -0.459,0.006 -0.596,-0.087 l 0,0 c -0.094,-0.064 -0.189,-0.128 -0.346,-0.128 l 0,0 c -0.037,0 -0.079,0.004 -0.125,0.012 m -30.626,1.977 c 0.113,-0.311 -0.259,-1.098 0.203,-1.067 l 0,0 c -0.14,-0.379 -0.468,-0.248 -0.783,-0.118 l 0,0 c -0.18,0.075 -0.358,0.149 -0.493,0.13 l 0,0 c -0.123,0.839 0.485,0.939 1.073,1.055 m 27.872,-0.461 c 0.865,0.073 0.225,-1.329 0.411,-1.92 l 0,0 c -0.238,0.042 -0.355,-0.038 -0.472,-0.117 l 0,0 c -0.137,-0.092 -0.273,-0.185 -0.595,-0.086 l 0,0 c 0.192,0.846 -0.304,1.574 0.018,1.916 l 0,0 c 0.084,-0.006 0.167,-0.012 0.245,-0.012 l 0,0 c 0.202,0 0.367,0.039 0.393,0.219 m -3.837,-0.82 c 0.285,-0.003 0.568,-0.003 0.851,-0.006 l 0,0 c -0.156,-0.788 0.356,-0.917 0.2,-1.703 l 0,0 c -0.4,-0.167 -0.785,-0.35 -1.284,-0.417 l 0,0 c 0.066,0.723 -0.147,1.729 0.233,2.126 m 2.746,-2.362 c 5.178,1.24 10.837,1.99 17.045,2.185 l 0,0 c 0.03,-3.894 -0.104,-7.624 -0.315,-11.275 l 0,0 c -0.775,0.072 -1.385,-0.021 -1.916,-0.195 l 0,0 -1.918,-0.195 c -4.873,-0.192 -8.622,-1.528 -12.58,-2.655 l 0,0 c 0.045,4.192 -0.151,8.149 -0.316,12.135 m 18.322,2.174 c 2.261,0.025 3.43,-0.041 5.527,-0.178 l 0,0 -0.284,-11.369 c -2.135,0.211 -3.378,0.316 -5.771,0.275 l 0,0 c 0.512,3.413 0.029,7.842 0.528,11.272 m -25.333,-1.049 c 0.801,1.088 2.246,0.558 1.691,-1.293 l 0,0 c -0.404,-0.23 -1.008,-0.262 -1.494,-0.411 l 0,0 c -0.126,0.509 0.279,1.54 -0.197,1.704 M 55.5,223.611 c 0.007,0.639 0.011,1.276 0.016,1.915 l 0,0 c 0.423,0.288 1.219,0.193 1.707,0.409 l 0,0 c 0.373,-0.404 0.143,-1.406 0.195,-2.128 l 0,0 c -0.574,-0.002 -0.922,-0.235 -1.497,-0.235 l 0,0 c -0.127,0 -0.266,0.011 -0.421,0.039 m -4.456,1.424 c 0.229,0.088 0.459,0.177 0.853,0.1 l 0,0 c -0.135,-0.906 0.14,-1.408 0.19,-2.131 l 0,0 c -0.386,0.093 -0.594,0.003 -0.801,-0.088 l 0,0 c -0.186,-0.082 -0.372,-0.163 -0.688,-0.111 l 0,0 c -0.37,0.482 -0.087,1.599 -0.407,2.13 l 0,0 c 0.107,-0.021 0.201,-0.03 0.287,-0.03 l 0,0 c 0.231,0 0.399,0.065 0.566,0.13 m -8.319,-2.16 c -0.508,0.272 0.132,1.676 -0.407,1.918 l 0,0 c 0.018,0.294 0.371,0.252 0.723,0.209 l 0,0 c 0.208,-0.025 0.415,-0.051 0.555,-0.006 l 0,0 c -0.158,-0.928 0.349,-1.203 0.194,-2.131 l 0,0 c -0.354,0.004 -0.71,0.006 -1.065,0.01 m 23.213,1.92 c 0.794,-3.579 0.252,-8.471 0.739,-12.35 l 0,0 c -6.138,-1.768 -11.228,-4.602 -19.19,-4.51 l 0,0 c -0.494,4.442 -1.29,9.698 -1.366,13.847 l 0,0 c 0.456,-0.013 0.906,-0.019 1.349,-0.019 l 0,0 c 7.148,0 12.719,1.605 18.468,3.032 m -19.385,-2.167 c -0.283,0.561 -0.238,1.452 -0.405,2.132 l 0,0 c 0.495,-0.006 0.99,-0.01 1.488,-0.014 l 0,0 c -0.234,-0.938 0.406,-1.649 -0.019,-2.127 l 0,0 c -0.353,0.002 -0.709,0.004 -1.064,0.009 m -6.81,0.06 c 1.094,-0.053 2.897,-1.229 5.1,-0.897 l 0,0 c 0.493,-4.951 0.927,-8.887 1.579,-13.846 l 0,0 c -1.713,0.145 -3.055,0.654 -4.245,1.315 l 0,0 c 0.21,1.003 1.208,1.205 1.93,1.686 l 0,0 c 0.008,1.413 -0.441,2.376 -0.39,3.834 l 0,0 c -1.051,-0.219 -1.622,-0.926 -2.356,-1.469 l 0,0 c -0.627,0.189 0.498,0.314 0.221,0.849 l 0,0 c -0.207,-0.004 -0.164,-0.258 -0.214,-0.424 l 0,0 c -0.474,0.088 -0.194,1.331 0.217,0.637 l 0,0 c -0.094,0.19 -0.183,0.383 -0.421,0.428 l 0,0 -0.2,1.705 c 0.122,1.096 0.274,0.559 -0.415,0.856 l 0,0 c 0.379,0.397 0.166,1.404 0.231,2.125 l 0,0 c -0.208,-0.005 -0.167,-0.259 -0.216,-0.424 l 0,0 c -0.203,1.14 0.063,2.777 -0.821,3.625 m 45.883,-9.348 c 0.005,0.567 0.011,1.135 0.016,1.701 l 0,0 c 0.427,-0.004 0.853,-0.006 1.278,-0.012 l 0,0 c -0.031,-0.611 0.103,-1.392 -0.23,-1.699 l 0,0 c -0.354,0.004 -0.708,0.008 -1.064,0.01 m -4.042,0.036 c 0.004,0.424 0.006,0.851 0.01,1.277 l 0,0 c 0.279,0.29 0.928,0.202 1.492,0.199 l 0,0 c -0.003,-0.496 -0.009,-0.992 -0.013,-1.491 l 0,0 c -0.346,0.088 -0.61,0.024 -0.826,-0.039 l 0,0 c -0.141,-0.04 -0.262,-0.081 -0.374,-0.081 l 0,0 c -0.102,0 -0.196,0.034 -0.289,0.135 m 7.66,-0.067 c 0.004,0.496 0.01,0.99 0.014,1.488 l 0,0 1.278,-0.012 c -0.007,-0.496 -0.01,-0.994 -0.015,-1.488 l 0,0 c -0.427,0.002 -0.851,0.006 -1.277,0.012 M 78.176,212.98 c 0.002,0.426 0.007,0.854 0.012,1.276 l 0,0 c 0.133,0.295 0.819,0.027 0.853,0.42 l 0,0 c 0.649,-0.023 0.487,-1.397 0.2,-1.705 l 0,0 c -0.356,0.003 -0.712,0.008 -1.065,0.009 m -2.758,1.09 c 0.842,0.121 0.241,-1.171 0.409,-1.707 l 0,0 c -0.08,-0.004 -0.168,0.001 -0.257,0.005 l 0,0 c -0.28,0.015 -0.562,0.03 -0.595,-0.207 l 0,0 c -0.66,0.052 -0.35,1.062 -0.408,1.702 l 0,0 c 0.08,0.004 0.169,0 0.257,-0.005 l 0,0 c 0.065,-0.003 0.13,-0.006 0.192,-0.006 l 0,0 c 0.206,0 0.378,0.034 0.402,0.218 m -4.28,-2.728 c 0.004,0.495 0.009,0.992 0.012,1.49 l 0,0 c 0.135,0.293 0.82,0.022 0.856,0.418 l 0,0 c 0.841,0.121 0.24,-1.172 0.411,-1.707 l 0,0 c -0.326,0.081 -0.484,-0.01 -0.64,-0.101 l 0,0 c -0.115,-0.066 -0.229,-0.131 -0.408,-0.131 l 0,0 c -0.067,0 -0.143,0.009 -0.231,0.031 m -29.14,1.539 c 1.036,-0.605 0.421,-1.879 -0.235,-2.34 l 0,0 c -0.579,0.705 -0.464,1.897 0.235,2.34 m 25.951,-1.086 c 0.438,0.15 0.848,0.662 1.28,0.201 l 0,0 c 0.15,-1.084 -0.171,-1.686 -1.081,-1.693 l 0,0 c 0.178,0.738 -0.309,0.822 -0.199,1.492 m -3.001,-2.738 c 0.048,0.664 -0.132,1.56 0.228,1.912 l 0,0 c 0.284,-0.002 0.568,-0.006 0.852,-0.008 l 0,0 c 0.118,-1.102 -0.056,-1.906 -1.018,-1.906 l 0,0 c -0.02,0 -0.041,0.001 -0.062,0.002 m -3.616,0.457 c 0.133,0.292 0.818,0.025 0.854,0.417 l 0,0 c 0.943,0.292 -0.008,-1.271 0.63,-1.28 l 0,0 c -0.193,-0.593 -0.863,-0.698 -1.499,-0.84 l 0,0 c 0.005,0.568 0.009,1.137 0.015,1.703 m -19.797,-0.885 c 1.102,0.027 0.893,-1.232 1.258,-1.928 l 0,0 c -0.175,-0.135 -0.321,-0.194 -0.444,-0.194 l 0,0 c -0.626,0 -0.658,1.507 -0.814,2.122 m 15.301,-2.268 c -0.119,0.375 0.267,1.248 -0.201,1.28 l 0,0 c 0.283,0.642 1.006,0.838 1.922,0.833 l 0,0 c -0.004,-0.566 -0.009,-1.134 -0.014,-1.703 l 0,0 c -0.467,-0.163 -0.839,-0.422 -1.468,-0.422 l 0,0 c -0.076,0 -0.155,0.004 -0.239,0.012 m -4.889,0.682 c 0.5,0.067 0.801,0.332 1.492,0.199 l 0,0 c -0.193,-0.846 0.304,-1.574 -0.017,-1.914 l 0,0 c -0.114,-0.043 -0.293,-0.018 -0.473,0.006 l 0,0 c -0.307,0.042 -0.614,0.084 -0.593,-0.207 l 0,0 c -0.541,0.24 -0.407,1.145 -0.409,1.916 m -7.447,0.069 c 0.651,0.148 0.774,-0.225 1.276,-0.225 l 0,0 c -0.006,-0.568 -0.012,-1.135 -0.017,-1.701 l 0,0 c -0.109,-0.017 -0.208,-0.025 -0.3,-0.025 l 0,0 c -0.982,0 -1.007,0.939 -0.959,1.951 m 3.813,-2.16 c -0.006,0.698 -0.352,1.058 -0.198,1.915 l 0,0 c 0.426,-0.006 0.85,-0.007 1.278,-0.014 l 0,0 c -0.122,-0.821 0.369,-1.04 0.195,-1.916 l 0,0 c -0.428,0.005 -0.852,0.008 -1.275,0.015"
               style="fill:url(#linearGradient3598);stroke:none"
               id="path3604" />
          </g>
        </g>
      </g>
    </g>
    <g
       transform="matrix(1.25,0,0,-1.25,434.27295,1192.2594)"
       id="g3606">
      <g
         id="g3608">
        <g
           id="g3614">
          <g
             id="g3616">
            <path
               inkscape:connector-curvature="0"
               d="m 72,240.111 27,0 -27,27 0,-27 z"
               style="fill:url(#linearGradient3618);stroke:none"
               id="path3624" />
          </g>
        </g>
      </g>
    </g>
    <g
       transform="matrix(1.25,0,0,-1.25,434.27295,1192.2594)"
       id="g3626">
      <g
         id="g3628"
         clip-path="url(#clipPath3630)">
        <g
           id="g3634"
           transform="translate(72,267.1113)">
          <path
             inkscape:connector-curvature="0"
             d="M 0,0 27,-27 0,-27 0,0 z"
             style="fill:none;stroke:#8c3788;stroke-width:2;stroke-linecap:butt;stroke-linejoin:bevel;stroke-miterlimit:4;stroke-opacity:1;stroke-dasharray:none"
             id="path3636" />
        </g>
      </g>
    </g>
  </g>
</svg>
